<?xml version="1.0" encoding="UTF-8" standalone="no"?>
<!DOCTYPE svg PUBLIC "-//W3C//DTD SVG 1.1//EN"
 "http://www.w3.org/Graphics/SVG/1.1/DTD/svg11.dtd">
<!-- Generated by graphviz version 15.1.0 (0)
 -->
<!-- Title: Argument Map Pages: 1 -->
<svg width="2136pt" height="1058pt"
 viewBox="0.00 0.00 2136.00 1058.00" xmlns="http://www.w3.org/2000/svg" xmlns:xlink="http://www.w3.org/1999/xlink">
<g id="graph0" class="graph" transform="scale(1 1) rotate(0) translate(4 1053.92)">
<title>Argument Map</title>
<g id="clust1" class="cluster">
<title>cluster_1</title>
<polygon fill="#f4f5f6" stroke="#f4f5f6" points="1218,-367.44 1218,-1041.92 2120,-1041.92 2120,-367.44 1218,-367.44"/>
<text xml:space="preserve" text-anchor="start" x="1624.98" y="-1025.92" font-family="arial" font-size="12.00" fill="#000000">Storage strategy</text>
</g>
<g id="clust2" class="cluster">
<title>cluster_2</title>
<polygon fill="#f4f5f6" stroke="#f4f5f6" points="8,-581.96 8,-885 300,-885 300,-581.96 8,-581.96"/>
<text xml:space="preserve" text-anchor="start" x="95.96" y="-869" font-family="arial" font-size="12.00" fill="#000000">Longhorn everywhere</text>
</g>
<g id="clust3" class="cluster">
<title>cluster_3</title>
<polygon fill="#f4f5f6" stroke="#f4f5f6" points="308,-8 308,-754.48 1210,-754.48 1210,-8 308,-8"/>
<text xml:space="preserve" text-anchor="start" x="676.95" y="-738.48" font-family="arial" font-size="12.00" fill="#000000">Direction: the shared data path</text>
</g>
<!-- n0 -->
<g id="node1" class="node">
<title>n0</title>
<g id="a_node1"><a xlink:title="Each software pack requests the volume access mode it needs; there is no cluster&#45;wide access&#45;mode policy. ">
<path fill="white" stroke="#c3ccd4" stroke-width="2" d="M1641.92,-1011.52C1641.92,-1011.52 1390.08,-1011.52 1390.08,-1011.52 1384.08,-1011.52 1378.08,-1005.52 1378.08,-999.52 1378.08,-999.52 1378.08,-940.4 1378.08,-940.4 1378.08,-934.4 1384.08,-928.4 1390.08,-928.4 1390.08,-928.4 1641.92,-928.4 1641.92,-928.4 1647.92,-928.4 1653.92,-934.4 1653.92,-940.4 1653.92,-940.4 1653.92,-999.52 1653.92,-999.52 1653.92,-1005.52 1647.92,-1011.52 1641.92,-1011.52"/>
<text xml:space="preserve" text-anchor="start" x="1412.95" y="-995.76" font-family="arial" font-weight="bold" font-size="12.00" fill="#000000">Access mode is a per&#45;pack decision</text>
<text xml:space="preserve" text-anchor="start" x="1436.21" y="-976.16" font-family="arial" font-size="11.00" fill="#000000">Each software pack requests the</text>
<text xml:space="preserve" text-anchor="start" x="1426.43" y="-962.96" font-family="arial" font-size="11.00" fill="#000000"> volume access mode it needs; there</text>
<text xml:space="preserve" text-anchor="start" x="1437.75" y="-949.76" font-family="arial" font-size="11.00" fill="#000000"> is no cluster&#45;wide access&#45;mode</text>
<text xml:space="preserve" text-anchor="start" x="1497.35" y="-936.56" font-family="arial" font-size="11.00" fill="#000000"> policy. </text>
</a>
</g>
</g>
<!-- n1 -->
<g id="node2" class="node">
<title>n1</title>
<g id="a_node2"><a xlink:title="Nebari should standardize the RWX capability and its acceptance criteria while allowing each infrastructure provider to supply the most suitable implementation. ">
<path fill="white" stroke="#c3ccd4" stroke-width="2" d="M1641.92,-874.4C1641.92,-874.4 1390.08,-874.4 1390.08,-874.4 1384.08,-874.4 1378.08,-868.4 1378.08,-862.4 1378.08,-862.4 1378.08,-790.08 1378.08,-790.08 1378.08,-784.08 1384.08,-778.08 1390.08,-778.08 1390.08,-778.08 1641.92,-778.08 1641.92,-778.08 1647.92,-778.08 1653.92,-784.08 1653.92,-790.08 1653.92,-790.08 1653.92,-862.4 1653.92,-862.4 1653.92,-868.4 1647.92,-874.4 1641.92,-874.4"/>
<text xml:space="preserve" text-anchor="start" x="1426.64" y="-858.64" font-family="arial" font-weight="bold" font-size="12.00" fill="#000000">Provider&#45;specific RWX strategy</text>
<text xml:space="preserve" text-anchor="start" x="1428.57" y="-839.04" font-family="arial" font-size="11.00" fill="#000000">Nebari should standardize the RWX</text>
<text xml:space="preserve" text-anchor="start" x="1444.15" y="-825.84" font-family="arial" font-size="11.00" fill="#000000"> capability and its acceptance</text>
<text xml:space="preserve" text-anchor="start" x="1449.05" y="-812.64" font-family="arial" font-size="11.00" fill="#000000"> criteria while allowing each</text>
<text xml:space="preserve" text-anchor="start" x="1437.44" y="-799.44" font-family="arial" font-size="11.00" fill="#000000"> infrastructure provider to supply</text>
<text xml:space="preserve" text-anchor="start" x="1431.01" y="-786.24" font-family="arial" font-size="11.00" fill="#000000"> the most suitable implementation. </text>
</a>
</g>
</g>
<!-- n1&#45;&gt;n0 -->
<g id="edge1" class="edge">
<title>n1&#45;&gt;n0</title>
<g id="a_edge1"><a xlink:title="support">
<path fill="none" stroke="#5c9e6f" stroke-width="2.5" d="M1516,-874.82C1516,-887.19 1516,-900.63 1516,-913.37"/>
<polygon fill="#5c9e6f" stroke="#5c9e6f" stroke-width="2.5" points="1512.15,-913.12 1516,-924.12 1519.85,-913.12 1512.15,-913.12"/>
</a>
</g>
</g>
<!-- n2 -->
<g id="node3" class="node">
<title>n2</title>
<g id="a_node3"><a xlink:title="Adopt a managed filesystem on AWS only if benchmarks and operational evaluation show that it meets the platform acceptance criteria better than Longhorn.">
<path fill="white" stroke="#c3ccd4" stroke-width="2" d="M1794.92,-679.68C1794.92,-679.68 1543.08,-679.68 1543.08,-679.68 1537.08,-679.68 1531.08,-673.68 1531.08,-667.68 1531.08,-667.68 1531.08,-595.36 1531.08,-595.36 1531.08,-589.36 1537.08,-583.36 1543.08,-583.36 1543.08,-583.36 1794.92,-583.36 1794.92,-583.36 1800.92,-583.36 1806.92,-589.36 1806.92,-595.36 1806.92,-595.36 1806.92,-667.68 1806.92,-667.68 1806.92,-673.68 1800.92,-679.68 1794.92,-679.68"/>
<text xml:space="preserve" text-anchor="start" x="1599.67" y="-663.92" font-family="arial" font-weight="bold" font-size="12.00" fill="#000000">Conditional AWS choice</text>
<text xml:space="preserve" text-anchor="start" x="1577.9" y="-644.32" font-family="arial" font-size="11.00" fill="#000000">Adopt a managed filesystem on AWS</text>
<text xml:space="preserve" text-anchor="start" x="1582.17" y="-631.12" font-family="arial" font-size="11.00" fill="#000000"> only if benchmarks and operational</text>
<text xml:space="preserve" text-anchor="start" x="1587.37" y="-617.92" font-family="arial" font-size="11.00" fill="#000000"> evaluation show that it meets the</text>
<text xml:space="preserve" text-anchor="start" x="1584.32" y="-604.72" font-family="arial" font-size="11.00" fill="#000000"> platform acceptance criteria better</text>
<text xml:space="preserve" text-anchor="start" x="1630.47" y="-591.52" font-family="arial" font-size="11.00" fill="#000000"> than Longhorn.</text>
</a>
</g>
</g>
<!-- n2&#45;&gt;n1 -->
<g id="edge2" class="edge">
<title>n2&#45;&gt;n1</title>
<g id="a_edge2"><a xlink:title="support">
<path fill="none" stroke="#5c9e6f" stroke-width="2.5" d="M1631.18,-680.16C1610.51,-706.2 1584.72,-738.68 1562.79,-766.31"/>
<polygon fill="#5c9e6f" stroke="#5c9e6f" stroke-width="2.5" points="1559.83,-763.84 1556,-774.85 1565.86,-768.63 1559.83,-763.84"/>
</a>
</g>
</g>
<!-- n3 -->
<g id="node4" class="node">
<title>n3</title>
<g id="a_node4"><a xlink:title="Nebari must continue to install, test, upgrade, back up, and support Longhorn for Hetzner and comparable environments even if AWS uses a managed filesystem. A managed AWS filesystem is therefore a second implementation added, not a first one replaced — which is a cost of diverging and a reason to consider using Longhorn everywhere.">
<path fill="white" stroke="#c3ccd4" stroke-width="2" d="M1489.92,-712.68C1489.92,-712.68 1238.08,-712.68 1238.08,-712.68 1232.08,-712.68 1226.08,-706.68 1226.08,-700.68 1226.08,-700.68 1226.08,-562.36 1226.08,-562.36 1226.08,-556.36 1232.08,-550.36 1238.08,-550.36 1238.08,-550.36 1489.92,-550.36 1489.92,-550.36 1495.92,-550.36 1501.92,-556.36 1501.92,-562.36 1501.92,-562.36 1501.92,-700.68 1501.92,-700.68 1501.92,-706.68 1495.92,-712.68 1489.92,-712.68"/>
<text xml:space="preserve" text-anchor="start" x="1280.33" y="-696.92" font-family="arial" font-weight="bold" font-size="12.00" fill="#000000">Longhorn remains supported</text>
<text xml:space="preserve" text-anchor="start" x="1288.8" y="-677.32" font-family="arial" font-size="11.00" fill="#000000">Nebari must continue to install,</text>
<text xml:space="preserve" text-anchor="start" x="1275.94" y="-664.12" font-family="arial" font-size="11.00" fill="#000000"> test, upgrade, back up, and support</text>
<text xml:space="preserve" text-anchor="start" x="1269.53" y="-650.92" font-family="arial" font-size="11.00" fill="#000000"> Longhorn for Hetzner and comparable</text>
<text xml:space="preserve" text-anchor="start" x="1279.93" y="-637.72" font-family="arial" font-size="11.00" fill="#000000"> environments even if AWS uses a</text>
<text xml:space="preserve" text-anchor="start" x="1268.32" y="-624.52" font-family="arial" font-size="11.00" fill="#000000"> managed filesystem. A managed AWS</text>
<text xml:space="preserve" text-anchor="start" x="1285.13" y="-611.32" font-family="arial" font-size="11.00" fill="#000000"> filesystem is therefore a second</text>
<text xml:space="preserve" text-anchor="start" x="1282.68" y="-598.12" font-family="arial" font-size="11.00" fill="#000000"> implementation added, not a first</text>
<text xml:space="preserve" text-anchor="start" x="1281.15" y="-584.92" font-family="arial" font-size="11.00" fill="#000000"> one replaced — which is a cost of</text>
<text xml:space="preserve" text-anchor="start" x="1278.08" y="-571.72" font-family="arial" font-size="11.00" fill="#000000"> diverging and a reason to consider</text>
<text xml:space="preserve" text-anchor="start" x="1293.07" y="-558.52" font-family="arial" font-size="11.00" fill="#000000"> using Longhorn everywhere.</text>
</a>
</g>
</g>
<!-- n3&#45;&gt;n1 -->
<g id="edge3" class="edge">
<title>n3&#45;&gt;n1</title>
<g id="a_edge3"><a xlink:title="support">
<path fill="none" stroke="#5c9e6f" stroke-width="2.5" d="M1427.58,-713.13C1441.66,-730.98 1456.32,-749.58 1469.57,-766.37"/>
<polygon fill="#5c9e6f" stroke="#5c9e6f" stroke-width="2.5" points="1466.31,-768.45 1476.14,-774.7 1472.35,-763.68 1466.31,-768.45"/>
</a>
</g>
</g>
<!-- n4 -->
<g id="node8" class="node">
<title>n4</title>
<g id="a_node8"><a xlink:title="Nebari should use Longhorn for RWX on every provider, including AWS.">
<path fill="white" stroke="#c3ccd4" stroke-width="2" d="M279.92,-854.6C279.92,-854.6 28.08,-854.6 28.08,-854.6 22.08,-854.6 16.08,-848.6 16.08,-842.6 16.08,-842.6 16.08,-809.88 16.08,-809.88 16.08,-803.88 22.08,-797.88 28.08,-797.88 28.08,-797.88 279.92,-797.88 279.92,-797.88 285.92,-797.88 291.92,-803.88 291.92,-809.88 291.92,-809.88 291.92,-842.6 291.92,-842.6 291.92,-848.6 285.92,-854.6 279.92,-854.6"/>
<text xml:space="preserve" text-anchor="start" x="97.33" y="-838.84" font-family="arial" font-weight="bold" font-size="12.00" fill="#000000">Universal Longhorn</text>
<text xml:space="preserve" text-anchor="start" x="54.94" y="-819.24" font-family="arial" font-size="11.00" fill="#000000">Nebari should use Longhorn for RWX on</text>
<text xml:space="preserve" text-anchor="start" x="77.27" y="-806.04" font-family="arial" font-size="11.00" fill="#000000"> every provider, including AWS.</text>
</a>
</g>
</g>
<!-- n3&#45;&gt;n4 -->
<g id="edge5" class="edge">
<title>n3&#45;&gt;n4</title>
<g id="a_edge5"><a xlink:title="support">
<path fill="none" stroke="#5c9e6f" stroke-width="2.5" d="M1285.25,-712.89C1264.65,-729.45 1241.33,-744.77 1217,-754.48 1134.75,-787.29 580.66,-810.61 306.73,-820.28"/>
<polygon fill="#5c9e6f" stroke="#5c9e6f" stroke-width="2.5" points="306.93,-816.42 296.08,-820.65 307.2,-824.11 306.93,-816.42"/>
</a>
</g>
</g>
<!-- n9 -->
<g id="node5" class="node">
<title>n9</title>
<g id="a_node5"><a xlink:title="A core platform requirement should define observable behavior, not mandate one storage product.">
<path fill="#c3ccd4" stroke="black" d="M2099.92,-666.48C2099.92,-666.48 1848.08,-666.48 1848.08,-666.48 1842.08,-666.48 1836.08,-660.48 1836.08,-654.48 1836.08,-654.48 1836.08,-608.56 1836.08,-608.56 1836.08,-602.56 1842.08,-596.56 1848.08,-596.56 1848.08,-596.56 2099.92,-596.56 2099.92,-596.56 2105.92,-596.56 2111.92,-602.56 2111.92,-608.56 2111.92,-608.56 2111.92,-654.48 2111.92,-654.48 2111.92,-660.48 2105.92,-666.48 2099.92,-666.48"/>
<text xml:space="preserve" text-anchor="start" x="1881.66" y="-650.72" font-family="arial" font-weight="bold" font-size="12.00" fill="#000000">Capability is not implementation</text>
<text xml:space="preserve" text-anchor="start" x="1888.1" y="-631.12" font-family="arial" font-size="11.00" fill="#000000">A core platform requirement should</text>
<text xml:space="preserve" text-anchor="start" x="1895.72" y="-617.92" font-family="arial" font-size="11.00" fill="#000000"> define observable behavior, not</text>
<text xml:space="preserve" text-anchor="start" x="1899.09" y="-604.72" font-family="arial" font-size="11.00" fill="#000000"> mandate one storage product.</text>
</a>
</g>
</g>
<!-- n9&#45;&gt;n1 -->
<g id="edge10" class="edge">
<title>n9&#45;&gt;n1</title>
<g id="a_edge10"><a xlink:title="support">
<path fill="none" stroke="#5c9e6f" stroke-width="2.5" d="M1940.33,-666.8C1911.22,-694.49 1866.72,-732.37 1821,-754.48 1773.8,-777.31 1718.87,-792.98 1668.73,-803.65"/>
<polygon fill="#5c9e6f" stroke="#5c9e6f" stroke-width="2.5" points="1668.09,-799.85 1658.09,-805.83 1669.64,-807.39 1668.09,-799.85"/>
</a>
</g>
</g>
<!-- n10 -->
<g id="node6" class="node">
<title>n10</title>
<g id="a_node6"><a xlink:title="AWS may use a managed shared filesystem — FSx for OpenZFS as the lead candidate, EFS behind it — if one satisfies the shared&#45;directory acceptance criteria better than Longhorn.">
<path fill="#c3ccd4" stroke="black" d="M1794.92,-484.96C1794.92,-484.96 1543.08,-484.96 1543.08,-484.96 1537.08,-484.96 1531.08,-478.96 1531.08,-472.96 1531.08,-472.96 1531.08,-387.44 1531.08,-387.44 1531.08,-381.44 1537.08,-375.44 1543.08,-375.44 1543.08,-375.44 1794.92,-375.44 1794.92,-375.44 1800.92,-375.44 1806.92,-381.44 1806.92,-387.44 1806.92,-387.44 1806.92,-472.96 1806.92,-472.96 1806.92,-478.96 1800.92,-484.96 1794.92,-484.96"/>
<text xml:space="preserve" text-anchor="start" x="1581.65" y="-469.2" font-family="arial" font-weight="bold" font-size="12.00" fill="#000000">AWS managed&#45;storage branch</text>
<text xml:space="preserve" text-anchor="start" x="1586.76" y="-449.6" font-family="arial" font-size="11.00" fill="#000000">AWS may use a managed shared</text>
<text xml:space="preserve" text-anchor="start" x="1575.78" y="-436.4" font-family="arial" font-size="11.00" fill="#000000"> filesystem — FSx for OpenZFS as the</text>
<text xml:space="preserve" text-anchor="start" x="1585.23" y="-423.2" font-family="arial" font-size="11.00" fill="#000000"> lead candidate, EFS behind it — if</text>
<text xml:space="preserve" text-anchor="start" x="1586.46" y="-410" font-family="arial" font-size="11.00" fill="#000000"> one satisfies the shared&#45;directory</text>
<text xml:space="preserve" text-anchor="start" x="1593.49" y="-396.8" font-family="arial" font-size="11.00" fill="#000000"> acceptance criteria better than</text>
<text xml:space="preserve" text-anchor="start" x="1642.7" y="-383.6" font-family="arial" font-size="11.00" fill="#000000"> Longhorn.</text>
</a>
</g>
</g>
<!-- n10&#45;&gt;n2 -->
<g id="edge11" class="edge">
<title>n10&#45;&gt;n2</title>
<g id="a_edge11"><a xlink:title="support">
<path fill="none" stroke="#5c9e6f" stroke-width="2.5" d="M1669,-485.4C1669,-511.06 1669,-541.83 1669,-568.42"/>
<polygon fill="#5c9e6f" stroke="#5c9e6f" stroke-width="2.5" points="1665.15,-568.33 1669,-579.33 1672.85,-568.33 1665.15,-568.33"/>
</a>
</g>
</g>
<!-- n11 -->
<g id="node7" class="node">
<title>n11</title>
<g id="a_node7"><a xlink:title="Longhorn remains necessary for providers that lack a suitable managed RWX abstraction.">
<path fill="#c3ccd4" stroke="black" d="M1489.92,-465.16C1489.92,-465.16 1238.08,-465.16 1238.08,-465.16 1232.08,-465.16 1226.08,-459.16 1226.08,-453.16 1226.08,-453.16 1226.08,-407.24 1226.08,-407.24 1226.08,-401.24 1232.08,-395.24 1238.08,-395.24 1238.08,-395.24 1489.92,-395.24 1489.92,-395.24 1495.92,-395.24 1501.92,-401.24 1501.92,-407.24 1501.92,-407.24 1501.92,-453.16 1501.92,-453.16 1501.92,-459.16 1495.92,-465.16 1489.92,-465.16"/>
<text xml:space="preserve" text-anchor="start" x="1290.67" y="-449.4" font-family="arial" font-weight="bold" font-size="12.00" fill="#000000">Hetzner Longhorn branch</text>
<text xml:space="preserve" text-anchor="start" x="1285.13" y="-429.8" font-family="arial" font-size="11.00" fill="#000000">Longhorn remains necessary for</text>
<text xml:space="preserve" text-anchor="start" x="1292.77" y="-416.6" font-family="arial" font-size="11.00" fill="#000000"> providers that lack a suitable</text>
<text xml:space="preserve" text-anchor="start" x="1295.22" y="-403.4" font-family="arial" font-size="11.00" fill="#000000"> managed RWX abstraction.</text>
</a>
</g>
</g>
<!-- n11&#45;&gt;n3 -->
<g id="edge12" class="edge">
<title>n11&#45;&gt;n3</title>
<g id="a_edge12"><a xlink:title="support">
<path fill="none" stroke="#5c9e6f" stroke-width="2.5" d="M1364,-465.46C1364,-484.91 1364,-510.3 1364,-535.32"/>
<polygon fill="#5c9e6f" stroke="#5c9e6f" stroke-width="2.5" points="1360.15,-535.18 1364,-546.18 1367.85,-535.18 1360.15,-535.18"/>
</a>
</g>
</g>
<!-- n4&#45;&gt;n1 -->
<g id="edge4" class="edge">
<title>n4&#45;&gt;n1</title>
<g id="a_edge4"><a xlink:title="attack">
<path fill="none" stroke="#c26060" stroke-width="2.5" d="M292.33,-826.24C649.25,-826.24 1006.18,-826.24 1363.11,-826.24"/>
<polygon fill="#c26060" stroke="#c26060" stroke-width="2.5" points="1362.9,-830.09 1373.9,-826.24 1362.9,-822.39 1362.9,-830.09"/>
</a>
</g>
</g>
<!-- n12 -->
<g id="node9" class="node">
<title>n12</title>
<g id="a_node9"><a xlink:title="A single Longhorn implementation on every provider would reduce variation in deployment and support procedures.">
<path fill="#c3ccd4" stroke="black" d="M279.92,-673.08C279.92,-673.08 28.08,-673.08 28.08,-673.08 22.08,-673.08 16.08,-667.08 16.08,-661.08 16.08,-661.08 16.08,-601.96 16.08,-601.96 16.08,-595.96 22.08,-589.96 28.08,-589.96 28.08,-589.96 279.92,-589.96 279.92,-589.96 285.92,-589.96 291.92,-595.96 291.92,-601.96 291.92,-601.96 291.92,-661.08 291.92,-661.08 291.92,-667.08 285.92,-673.08 279.92,-673.08"/>
<text xml:space="preserve" text-anchor="start" x="80.32" y="-657.32" font-family="arial" font-weight="bold" font-size="12.00" fill="#000000">Use Longhorn universally</text>
<text xml:space="preserve" text-anchor="start" x="63.19" y="-637.72" font-family="arial" font-size="11.00" fill="#000000">A single Longhorn implementation on</text>
<text xml:space="preserve" text-anchor="start" x="83.38" y="-624.52" font-family="arial" font-size="11.00" fill="#000000"> every provider would reduce</text>
<text xml:space="preserve" text-anchor="start" x="65.33" y="-611.32" font-family="arial" font-size="11.00" fill="#000000"> variation in deployment and support</text>
<text xml:space="preserve" text-anchor="start" x="123.43" y="-598.12" font-family="arial" font-size="11.00" fill="#000000"> procedures.</text>
</a>
</g>
</g>
<!-- n12&#45;&gt;n4 -->
<g id="edge13" class="edge">
<title>n12&#45;&gt;n4</title>
<g id="a_edge13"><a xlink:title="support">
<path fill="none" stroke="#5c9e6f" stroke-width="2.5" d="M154,-673.39C154,-705.63 154,-750.44 154,-783.03"/>
<polygon fill="#5c9e6f" stroke="#5c9e6f" stroke-width="2.5" points="150.15,-782.7 154,-793.7 157.85,-782.7 150.15,-782.7"/>
</a>
</g>
</g>
<!-- n5 -->
<g id="node10" class="node">
<title>n5</title>
<g id="a_node10"><a xlink:title="Shared storage today is served by a single in&#45;cluster NFS pod — Longhorn&#39;s share&#45;manager where RWX is used, the pack&#39;s transitional NFS server on a stock deploy — making it one bottleneck and one failure domain for every group at once, with no equivalent in a managed filesystem. That is a property of this implementation, not of the RWX requirement.">
<path fill="white" stroke="#c3ccd4" stroke-width="2" d="M584.92,-724.08C584.92,-724.08 333.08,-724.08 333.08,-724.08 327.08,-724.08 321.08,-718.08 321.08,-712.08 321.08,-712.08 321.08,-550.96 321.08,-550.96 321.08,-544.96 327.08,-538.96 333.08,-538.96 333.08,-538.96 584.92,-538.96 584.92,-538.96 590.92,-538.96 596.92,-544.96 596.92,-550.96 596.92,-550.96 596.92,-712.08 596.92,-712.08 596.92,-718.08 590.92,-724.08 584.92,-724.08"/>
<text xml:space="preserve" text-anchor="start" x="365.66" y="-708.32" font-family="arial" font-weight="bold" font-size="12.00" fill="#000000">Longhorn RWX concentrates the</text>
<text xml:space="preserve" text-anchor="start" x="409.32" y="-696.32" font-family="arial" font-weight="bold" font-size="12.00" fill="#000000"> shared data path</text>
<text xml:space="preserve" text-anchor="start" x="370.95" y="-679.12" font-family="arial" font-size="11.00" fill="#000000">Shared storage today is served by a</text>
<text xml:space="preserve" text-anchor="start" x="389.92" y="-665.92" font-family="arial" font-size="11.00" fill="#000000"> single in&#45;cluster NFS pod —</text>
<text xml:space="preserve" text-anchor="start" x="360.74" y="-652.72" font-family="arial" font-size="11.00" fill="#000000"> Longhorn&#39;s share&#45;manager where RWX</text>
<text xml:space="preserve" text-anchor="start" x="371.74" y="-639.52" font-family="arial" font-size="11.00" fill="#000000"> is used, the pack&#39;s transitional NFS</text>
<text xml:space="preserve" text-anchor="start" x="368.21" y="-626.32" font-family="arial" font-size="11.00" fill="#000000"> server on a stock deploy — making it</text>
<text xml:space="preserve" text-anchor="start" x="383.78" y="-613.12" font-family="arial" font-size="11.00" fill="#000000"> one bottleneck and one failure</text>
<text xml:space="preserve" text-anchor="start" x="368.51" y="-599.92" font-family="arial" font-size="11.00" fill="#000000"> domain for every group at once, with</text>
<text xml:space="preserve" text-anchor="start" x="389.89" y="-586.72" font-family="arial" font-size="11.00" fill="#000000"> no equivalent in a managed</text>
<text xml:space="preserve" text-anchor="start" x="381.05" y="-573.52" font-family="arial" font-size="11.00" fill="#000000"> filesystem. That is a property of</text>
<text xml:space="preserve" text-anchor="start" x="369.74" y="-560.32" font-family="arial" font-size="11.00" fill="#000000"> this implementation, not of the RWX</text>
<text xml:space="preserve" text-anchor="start" x="426.6" y="-547.12" font-family="arial" font-size="11.00" fill="#000000"> requirement.</text>
</a>
</g>
</g>
<!-- n5&#45;&gt;n4 -->
<g id="edge6" class="edge">
<title>n5&#45;&gt;n4</title>
<g id="a_edge6"><a xlink:title="attack">
<path fill="none" stroke="#c26060" stroke-width="2.5" d="M350.91,-724.4C336.52,-735.08 321.67,-745.39 307,-754.48 284.96,-768.14 259.85,-780.82 236.43,-791.56"/>
<polygon fill="#c26060" stroke="#c26060" stroke-width="2.5" points="235.15,-787.91 226.7,-795.94 238.31,-794.93 235.15,-787.91"/>
</a>
</g>
</g>
<!-- n6 -->
<g id="node11" class="node">
<title>n6</title>
<g id="a_node11"><a xlink:title="The whole&#45;cluster scope should be fixed in the pack whichever way AWS storage goes, so it carries little weight for the managed&#45;filesystem branch. What survives is per&#45;group and smaller: an in&#45;cluster NFS pod over synchronous replication, plus a control plane shared by every volume in the cluster.">
<path fill="white" stroke="#c3ccd4" stroke-width="2" d="M884.92,-321.44C884.92,-321.44 633.08,-321.44 633.08,-321.44 627.08,-321.44 621.08,-315.44 621.08,-309.44 621.08,-309.44 621.08,-174.72 621.08,-174.72 621.08,-168.72 627.08,-162.72 633.08,-162.72 633.08,-162.72 884.92,-162.72 884.92,-162.72 890.92,-162.72 896.92,-168.72 896.92,-174.72 896.92,-174.72 896.92,-309.44 896.92,-309.44 896.92,-315.44 890.92,-321.44 884.92,-321.44"/>
<text xml:space="preserve" text-anchor="start" x="673.32" y="-305.68" font-family="arial" font-weight="bold" font-size="12.00" fill="#000000">Concentration is fixable in the</text>
<text xml:space="preserve" text-anchor="start" x="743.66" y="-293.68" font-family="arial" font-weight="bold" font-size="12.00" fill="#000000"> pack</text>
<text xml:space="preserve" text-anchor="start" x="674.01" y="-276.48" font-family="arial" font-size="11.00" fill="#000000">The whole&#45;cluster scope should be</text>
<text xml:space="preserve" text-anchor="start" x="666.07" y="-263.28" font-family="arial" font-size="11.00" fill="#000000"> fixed in the pack whichever way AWS</text>
<text xml:space="preserve" text-anchor="start" x="683.19" y="-250.08" font-family="arial" font-size="11.00" fill="#000000"> storage goes, so it carries little</text>
<text xml:space="preserve" text-anchor="start" x="673.71" y="-236.88" font-family="arial" font-size="11.00" fill="#000000"> weight for the managed&#45;filesystem</text>
<text xml:space="preserve" text-anchor="start" x="672.19" y="-223.68" font-family="arial" font-size="11.00" fill="#000000"> branch. What survives is per&#45;group</text>
<text xml:space="preserve" text-anchor="start" x="672.8" y="-210.48" font-family="arial" font-size="11.00" fill="#000000"> and smaller: an in&#45;cluster NFS pod</text>
<text xml:space="preserve" text-anchor="start" x="669.73" y="-197.28" font-family="arial" font-size="11.00" fill="#000000"> over synchronous replication, plus a</text>
<text xml:space="preserve" text-anchor="start" x="666.06" y="-184.08" font-family="arial" font-size="11.00" fill="#000000"> control plane shared by every volume</text>
<text xml:space="preserve" text-anchor="start" x="724.76" y="-170.88" font-family="arial" font-size="11.00" fill="#000000"> in the cluster.</text>
</a>
</g>
</g>
<!-- n13 -->
<g id="node14" class="node">
<title>n13</title>
<g id="a_node14"><a xlink:title="Longhorn does not serve RWX from the replicated block layer directly — it puts an NFS server pod in front of it, and the pack&#39;s layout funnels the whole cluster&#39;s shared storage through one of them.">
<path fill="#c3ccd4" stroke="black" d="M884.92,-484.96C884.92,-484.96 633.08,-484.96 633.08,-484.96 627.08,-484.96 621.08,-478.96 621.08,-472.96 621.08,-472.96 621.08,-387.44 621.08,-387.44 621.08,-381.44 627.08,-375.44 633.08,-375.44 633.08,-375.44 884.92,-375.44 884.92,-375.44 890.92,-375.44 896.92,-381.44 896.92,-387.44 896.92,-387.44 896.92,-472.96 896.92,-472.96 896.92,-478.96 890.92,-484.96 884.92,-484.96"/>
<text xml:space="preserve" text-anchor="start" x="661.67" y="-469.2" font-family="arial" font-weight="bold" font-size="12.00" fill="#000000">Longhorn RWX data&#45;path concern</text>
<text xml:space="preserve" text-anchor="start" x="662.09" y="-449.6" font-family="arial" font-size="11.00" fill="#000000">Longhorn does not serve RWX from the</text>
<text xml:space="preserve" text-anchor="start" x="676.47" y="-436.4" font-family="arial" font-size="11.00" fill="#000000"> replicated block layer directly — it</text>
<text xml:space="preserve" text-anchor="start" x="674.93" y="-423.2" font-family="arial" font-size="11.00" fill="#000000"> puts an NFS server pod in front of</text>
<text xml:space="preserve" text-anchor="start" x="680.9" y="-410" font-family="arial" font-size="11.00" fill="#000000"> it, and the pack&#39;s layout funnels</text>
<text xml:space="preserve" text-anchor="start" x="674.18" y="-396.8" font-family="arial" font-size="11.00" fill="#000000"> the whole cluster&#39;s shared storage</text>
<text xml:space="preserve" text-anchor="start" x="706.72" y="-383.6" font-family="arial" font-size="11.00" fill="#000000"> through one of them.</text>
</a>
</g>
</g>
<!-- n6&#45;&gt;n13 -->
<g id="edge8" class="edge">
<title>n6&#45;&gt;n13</title>
<g id="a_edge8"><a xlink:title="undercut">
<path fill="none" stroke="#8a6bb0" stroke-width="2.5" d="M759,-321.74C759,-334.65 759,-347.93 759,-360.57"/>
<polygon fill="#8a6bb0" stroke="#8a6bb0" stroke-width="2.5" points="755.15,-360.27 759,-371.27 762.85,-360.27 755.15,-360.27"/>
</a>
</g>
</g>
<!-- n7 -->
<g id="node12" class="node">
<title>n7</title>
<g id="a_node12"><a xlink:title="RWX on Longhorn should be scoped to workloads that need sharing, never used as a general default. Its advantage over managed storage is on the RWO path, not the RWX one.">
<path fill="white" stroke="#c3ccd4" stroke-width="2" d="M579.92,-483.16C579.92,-483.16 328.08,-483.16 328.08,-483.16 322.08,-483.16 316.08,-477.16 316.08,-471.16 316.08,-471.16 316.08,-389.24 316.08,-389.24 316.08,-383.24 322.08,-377.24 328.08,-377.24 328.08,-377.24 579.92,-377.24 579.92,-377.24 585.92,-377.24 591.92,-383.24 591.92,-389.24 591.92,-389.24 591.92,-471.16 591.92,-471.16 591.92,-477.16 585.92,-483.16 579.92,-483.16"/>
<text xml:space="preserve" text-anchor="start" x="371.97" y="-467.4" font-family="arial" font-weight="bold" font-size="12.00" fill="#000000">RWX is materially slower per</text>
<text xml:space="preserve" text-anchor="start" x="425" y="-455.4" font-family="arial" font-weight="bold" font-size="12.00" fill="#000000"> operation</text>
<text xml:space="preserve" text-anchor="start" x="357.99" y="-438.2" font-family="arial" font-size="11.00" fill="#000000">RWX on Longhorn should be scoped to</text>
<text xml:space="preserve" text-anchor="start" x="366.86" y="-425" font-family="arial" font-size="11.00" fill="#000000"> workloads that need sharing, never</text>
<text xml:space="preserve" text-anchor="start" x="381.84" y="-411.8" font-family="arial" font-size="11.00" fill="#000000"> used as a general default. Its</text>
<text xml:space="preserve" text-anchor="start" x="357.07" y="-398.6" font-family="arial" font-size="11.00" fill="#000000"> advantage over managed storage is on</text>
<text xml:space="preserve" text-anchor="start" x="371.16" y="-385.4" font-family="arial" font-size="11.00" fill="#000000"> the RWO path, not the RWX one.</text>
</a>
</g>
</g>
<!-- n7&#45;&gt;n5 -->
<g id="edge7" class="edge">
<title>n7&#45;&gt;n5</title>
<g id="a_edge7"><a xlink:title="support">
<path fill="none" stroke="#5c9e6f" stroke-width="2.5" d="M455.31,-483.57C455.63,-496.15 455.98,-510.05 456.33,-524.12"/>
<polygon fill="#5c9e6f" stroke="#5c9e6f" stroke-width="2.5" points="452.48,-524.12 456.6,-535.02 460.18,-523.93 452.48,-524.12"/>
</a>
</g>
</g>
<!-- n8 -->
<g id="node13" class="node">
<title>n8</title>
<g id="a_node13"><a xlink:title="The uniformity on offer is narrower than it sounds: two live providers, and on a stock deploy Longhorn&#39;s RWX path is not even what serves `/shared`.">
<path fill="white" stroke="#c3ccd4" stroke-width="2" d="M1189.92,-290.24C1189.92,-290.24 938.08,-290.24 938.08,-290.24 932.08,-290.24 926.08,-284.24 926.08,-278.24 926.08,-278.24 926.08,-205.92 926.08,-205.92 926.08,-199.92 932.08,-193.92 938.08,-193.92 938.08,-193.92 1189.92,-193.92 1189.92,-193.92 1195.92,-193.92 1201.92,-199.92 1201.92,-205.92 1201.92,-205.92 1201.92,-278.24 1201.92,-278.24 1201.92,-284.24 1195.92,-290.24 1189.92,-290.24"/>
<text xml:space="preserve" text-anchor="start" x="972.66" y="-274.48" font-family="arial" font-weight="bold" font-size="12.00" fill="#000000">Longhorn is not universal today</text>
<text xml:space="preserve" text-anchor="start" x="980.25" y="-254.88" font-family="arial" font-size="11.00" fill="#000000">The uniformity on offer is narrower</text>
<text xml:space="preserve" text-anchor="start" x="981.15" y="-241.68" font-family="arial" font-size="11.00" fill="#000000"> than it sounds: two live providers,</text>
<text xml:space="preserve" text-anchor="start" x="966.03" y="-228.48" font-family="arial" font-size="11.00" fill="#000000"> and on a stock deploy Longhorn&#39;s RWX</text>
<text xml:space="preserve" text-anchor="start" x="992.77" y="-215.28" font-family="arial" font-size="11.00" fill="#000000"> path is not even what serves</text>
<text xml:space="preserve" text-anchor="start" x="1038.94" y="-202.08" font-family="arial" font-size="11.00" fill="#000000"> `/shared`.</text>
</a>
</g>
</g>
<!-- n8&#45;&gt;n4 -->
<g id="edge9" class="edge">
<title>n8&#45;&gt;n4</title>
<g id="a_edge9"><a xlink:title="attack">
<path fill="none" stroke="#c26060" stroke-width="2.5" d="M1039.66,-290.4C982.04,-396.61 825.88,-652.59 611,-754.48 558.27,-779.48 418.05,-798.91 306.71,-811.03"/>
<polygon fill="#c26060" stroke="#c26060" stroke-width="2.5" points="306.54,-807.17 296.01,-812.17 307.36,-814.83 306.54,-807.17"/>
</a>
</g>
</g>
<!-- n13&#45;&gt;n5 -->
<g id="edge14" class="edge">
<title>n13&#45;&gt;n5</title>
<g id="a_edge14"><a xlink:title="support">
<path fill="none" stroke="#5c9e6f" stroke-width="2.5" d="M677.42,-485.4C656.29,-499.44 632.86,-515.01 609.41,-530.59"/>
<polygon fill="#5c9e6f" stroke="#5c9e6f" stroke-width="2.5" points="607.34,-527.34 600.31,-536.63 611.6,-533.75 607.34,-527.34"/>
</a>
</g>
</g>
<!-- n14 -->
<g id="node15" class="node">
<title>n14</title>
<g id="a_node15"><a xlink:title="Longhorn is not in fact the project&#39;s universal RWX implementation today.">
<path fill="#c3ccd4" stroke="black" d="M1189.92,-90.72C1189.92,-90.72 938.08,-90.72 938.08,-90.72 932.08,-90.72 926.08,-84.72 926.08,-78.72 926.08,-78.72 926.08,-46 926.08,-46 926.08,-40 932.08,-34 938.08,-34 938.08,-34 1189.92,-34 1189.92,-34 1195.92,-34 1201.92,-40 1201.92,-46 1201.92,-46 1201.92,-78.72 1201.92,-78.72 1201.92,-84.72 1195.92,-90.72 1189.92,-90.72"/>
<text xml:space="preserve" text-anchor="start" x="985.66" y="-74.96" font-family="arial" font-weight="bold" font-size="12.00" fill="#000000">RWX is already not uniform</text>
<text xml:space="preserve" text-anchor="start" x="978.87" y="-55.36" font-family="arial" font-size="11.00" fill="#000000">Longhorn is not in fact the project&#39;s</text>
<text xml:space="preserve" text-anchor="start" x="970.77" y="-42.16" font-family="arial" font-size="11.00" fill="#000000"> universal RWX implementation today.</text>
</a>
</g>
</g>
<!-- n14&#45;&gt;n8 -->
<g id="edge15" class="edge">
<title>n14&#45;&gt;n8</title>
<g id="a_edge15"><a xlink:title="support">
<path fill="none" stroke="#5c9e6f" stroke-width="2.5" d="M1064,-91.13C1064,-114.51 1064,-148.84 1064,-178.75"/>
<polygon fill="#5c9e6f" stroke="#5c9e6f" stroke-width="2.5" points="1060.15,-178.67 1064,-189.67 1067.85,-178.67 1060.15,-178.67"/>
</a>
</g>
</g>
<!-- n15 -->
<g id="node16" class="node">
<title>n15</title>
<g id="a_node16"><a xlink:title="The RWO/RWX performance gap on Longhorn is structural, not a tuning problem.">
<path fill="#c3ccd4" stroke="black" d="M579.92,-281.84C579.92,-281.84 328.08,-281.84 328.08,-281.84 322.08,-281.84 316.08,-275.84 316.08,-269.84 316.08,-269.84 316.08,-214.32 316.08,-214.32 316.08,-208.32 322.08,-202.32 328.08,-202.32 328.08,-202.32 579.92,-202.32 579.92,-202.32 585.92,-202.32 591.92,-208.32 591.92,-214.32 591.92,-214.32 591.92,-269.84 591.92,-269.84 591.92,-275.84 585.92,-281.84 579.92,-281.84"/>
<text xml:space="preserve" text-anchor="start" x="350.3" y="-266.08" font-family="arial" font-weight="bold" font-size="12.00" fill="#000000">RWX pays a write acknowledgement</text>
<text xml:space="preserve" text-anchor="start" x="398.65" y="-254.08" font-family="arial" font-weight="bold" font-size="12.00" fill="#000000"> on every operation</text>
<text xml:space="preserve" text-anchor="start" x="364.44" y="-236.88" font-family="arial" font-size="11.00" fill="#000000">The RWO/RWX performance gap on</text>
<text xml:space="preserve" text-anchor="start" x="367.78" y="-223.68" font-family="arial" font-size="11.00" fill="#000000"> Longhorn is structural, not a tuning</text>
<text xml:space="preserve" text-anchor="start" x="431.07" y="-210.48" font-family="arial" font-size="11.00" fill="#000000"> problem.</text>
</a>
</g>
</g>
<!-- n15&#45;&gt;n7 -->
<g id="edge16" class="edge">
<title>n15&#45;&gt;n7</title>
<g id="a_edge16"><a xlink:title="support">
<path fill="none" stroke="#5c9e6f" stroke-width="2.5" d="M454,-282.1C454,-305.3 454,-335.37 454,-362.26"/>
<polygon fill="#5c9e6f" stroke="#5c9e6f" stroke-width="2.5" points="450.15,-362.03 454,-373.03 457.85,-362.03 450.15,-362.03"/>
</a>
</g>
</g>
<!-- n16 -->
<g id="node17" class="node">
<title>n16</title>
<g id="a_node17"><a xlink:title="The whole&#45;cluster scope of that data path is ours, not Longhorn&#39;s, and is fixable without changing storage backend.">
<path fill="#c3ccd4" stroke="black" d="M884.92,-108.72C884.92,-108.72 633.08,-108.72 633.08,-108.72 627.08,-108.72 621.08,-102.72 621.08,-96.72 621.08,-96.72 621.08,-28 621.08,-28 621.08,-22 627.08,-16 633.08,-16 633.08,-16 884.92,-16 884.92,-16 890.92,-16 896.92,-22 896.92,-28 896.92,-28 896.92,-96.72 896.92,-96.72 896.92,-102.72 890.92,-108.72 884.92,-108.72"/>
<text xml:space="preserve" text-anchor="start" x="679.98" y="-92.96" font-family="arial" font-weight="bold" font-size="12.00" fill="#000000">The concentration is a pack</text>
<text xml:space="preserve" text-anchor="start" x="718.99" y="-80.96" font-family="arial" font-weight="bold" font-size="12.00" fill="#000000"> layout choice</text>
<text xml:space="preserve" text-anchor="start" x="670.34" y="-63.76" font-family="arial" font-size="11.00" fill="#000000">The whole&#45;cluster scope of that data</text>
<text xml:space="preserve" text-anchor="start" x="672.03" y="-50.56" font-family="arial" font-size="11.00" fill="#000000"> path is ours, not Longhorn&#39;s, and is</text>
<text xml:space="preserve" text-anchor="start" x="678.89" y="-37.36" font-family="arial" font-size="11.00" fill="#000000"> fixable without changing storage</text>
<text xml:space="preserve" text-anchor="start" x="735.15" y="-24.16" font-family="arial" font-size="11.00" fill="#000000"> backend.</text>
</a>
</g>
</g>
<!-- n16&#45;&gt;n6 -->
<g id="edge17" class="edge">
<title>n16&#45;&gt;n6</title>
<g id="a_edge17"><a xlink:title="support">
<path fill="none" stroke="#5c9e6f" stroke-width="2.5" d="M759,-109.13C759,-121.06 759,-134.36 759,-147.8"/>
<polygon fill="#5c9e6f" stroke="#5c9e6f" stroke-width="2.5" points="755.15,-147.59 759,-158.59 762.85,-147.59 755.15,-147.59"/>
</a>
</g>
</g>
</g>
</svg>
