<?xml version="1.0" encoding="UTF-8" standalone="no"?>
<!DOCTYPE svg PUBLIC "-//W3C//DTD SVG 1.1//EN"
 "http://www.w3.org/Graphics/SVG/1.1/DTD/svg11.dtd">
<!-- Generated by graphviz version 15.1.0 (0)
 -->
<!-- Title: Argument Map Pages: 1 -->
<svg width="1231pt" height="881pt"
 viewBox="0.00 0.00 1231.00 881.00" xmlns="http://www.w3.org/2000/svg" xmlns:xlink="http://www.w3.org/1999/xlink">
<g id="graph0" class="graph" transform="scale(1 1) rotate(0) translate(4 877.2)">
<title>Argument Map</title>
<g id="clust1" class="cluster">
<title>cluster_1</title>
<polygon fill="#f4f5f6" stroke="#f4f5f6" points="8,-8 8,-865.2 1215,-865.2 1215,-8 8,-8"/>
<text xml:space="preserve" text-anchor="start" x="556.81" y="-849.2" font-family="arial" font-size="12.00" fill="#000000">Home volume scope</text>
</g>
<!-- n0 -->
<g id="node1" class="node">
<title>n0</title>
<g id="a_node1"><a xlink:title="Whether per&#45;user home volumes stay RWO or move to a managed RWX filesystem is an open decision on AWS, settled by measurement rather than by the current design. ">
<path fill="white" stroke="#b3762f" stroke-width="2" d="M889.92,-808.4C889.92,-808.4 638.08,-808.4 638.08,-808.4 632.08,-808.4 626.08,-802.4 626.08,-796.4 626.08,-796.4 626.08,-724.08 626.08,-724.08 626.08,-718.08 632.08,-712.08 638.08,-712.08 638.08,-712.08 889.92,-712.08 889.92,-712.08 895.92,-712.08 901.92,-718.08 901.92,-724.08 901.92,-724.08 901.92,-796.4 901.92,-796.4 901.92,-802.4 895.92,-808.4 889.92,-808.4"/>
<text xml:space="preserve" text-anchor="start" x="662.63" y="-792.64" font-family="arial" font-weight="bold" font-size="12.00" fill="#000000">Home volume access mode is open</text>
<text xml:space="preserve" text-anchor="start" x="672.3" y="-773.04" font-family="arial" font-size="11.00" fill="#000000">Whether per&#45;user home volumes stay</text>
<text xml:space="preserve" text-anchor="start" x="678.11" y="-759.84" font-family="arial" font-size="11.00" fill="#000000"> RWO or move to a managed RWX</text>
<text xml:space="preserve" text-anchor="start" x="681.76" y="-746.64" font-family="arial" font-size="11.00" fill="#000000"> filesystem is an open decision on</text>
<text xml:space="preserve" text-anchor="start" x="672.3" y="-733.44" font-family="arial" font-size="11.00" fill="#000000"> AWS, settled by measurement rather</text>
<text xml:space="preserve" text-anchor="start" x="695.82" y="-720.24" font-family="arial" font-size="11.00" fill="#000000"> than by the current design. </text>
</a>
</g>
</g>
<!-- n1 -->
<g id="node2" class="node">
<title>n1</title>
<g id="a_node2"><a xlink:title="Users should be able to opt into a shared&#45;filesystem mode (EFS or equivalent) for their home volume, trading write latency for not being capped by one node&#39;s capacity. ">
<path fill="white" stroke="#b3762f" stroke-width="2" d="M584.92,-808.4C584.92,-808.4 333.08,-808.4 333.08,-808.4 327.08,-808.4 321.08,-802.4 321.08,-796.4 321.08,-796.4 321.08,-724.08 321.08,-724.08 321.08,-718.08 327.08,-712.08 333.08,-712.08 333.08,-712.08 584.92,-712.08 584.92,-712.08 590.92,-712.08 596.92,-718.08 596.92,-724.08 596.92,-724.08 596.92,-796.4 596.92,-796.4 596.92,-802.4 590.92,-808.4 584.92,-808.4"/>
<text xml:space="preserve" text-anchor="start" x="376.97" y="-792.64" font-family="arial" font-weight="bold" font-size="12.00" fill="#000000">Per&#45;user opt&#45;in access mode</text>
<text xml:space="preserve" text-anchor="start" x="377.06" y="-773.04" font-family="arial" font-size="11.00" fill="#000000">Users should be able to opt into a</text>
<text xml:space="preserve" text-anchor="start" x="378.61" y="-759.84" font-family="arial" font-size="11.00" fill="#000000"> shared&#45;filesystem mode (EFS or</text>
<text xml:space="preserve" text-anchor="start" x="374.32" y="-746.64" font-family="arial" font-size="11.00" fill="#000000"> equivalent) for their home volume,</text>
<text xml:space="preserve" text-anchor="start" x="376.45" y="-733.44" font-family="arial" font-size="11.00" fill="#000000"> trading write latency for not being</text>
<text xml:space="preserve" text-anchor="start" x="379.06" y="-720.24" font-family="arial" font-size="11.00" fill="#000000"> capped by one node&#39;s capacity. </text>
</a>
</g>
</g>
<!-- n2 -->
<g id="node3" class="node">
<title>n2</title>
<g id="a_node3"><a xlink:title="Home volumes should remain RWO and the question is closed.">
<path fill="white" stroke="#c3ccd4" stroke-width="2" d="M889.92,-611.88C889.92,-611.88 638.08,-611.88 638.08,-611.88 632.08,-611.88 626.08,-605.88 626.08,-599.88 626.08,-599.88 626.08,-567.16 626.08,-567.16 626.08,-561.16 632.08,-555.16 638.08,-555.16 638.08,-555.16 889.92,-555.16 889.92,-555.16 895.92,-555.16 901.92,-561.16 901.92,-567.16 901.92,-567.16 901.92,-599.88 901.92,-599.88 901.92,-605.88 895.92,-611.88 889.92,-611.88"/>
<text xml:space="preserve" text-anchor="start" x="692.66" y="-596.12" font-family="arial" font-weight="bold" font-size="12.00" fill="#000000">Homes should stay RWO</text>
<text xml:space="preserve" text-anchor="start" x="665.57" y="-576.52" font-family="arial" font-size="11.00" fill="#000000">Home volumes should remain RWO and</text>
<text xml:space="preserve" text-anchor="start" x="708.05" y="-563.32" font-family="arial" font-size="11.00" fill="#000000"> the question is closed.</text>
</a>
</g>
</g>
<!-- n2&#45;&gt;n0 -->
<g id="edge4" class="edge">
<title>n2&#45;&gt;n0</title>
<g id="a_edge4"><a xlink:title="attack">
<path fill="none" stroke="#c26060" stroke-width="2.5" d="M764,-612.2C764,-634.9 764,-667.89 764,-696.88"/>
<polygon fill="#c26060" stroke="#c26060" stroke-width="2.5" points="760.15,-696.81 764,-707.81 767.85,-696.81 760.15,-696.81"/>
</a>
</g>
</g>
<!-- n3 -->
<g id="node4" class="node">
<title>n3</title>
<g id="a_node4"><a xlink:title="The performance claim is a gate to measure against FSx for OpenZFS, not a finding about it.">
<path fill="white" stroke="#c3ccd4" stroke-width="2" d="M889.92,-295.04C889.92,-295.04 638.08,-295.04 638.08,-295.04 632.08,-295.04 626.08,-289.04 626.08,-283.04 626.08,-283.04 626.08,-227.52 626.08,-227.52 626.08,-221.52 632.08,-215.52 638.08,-215.52 638.08,-215.52 889.92,-215.52 889.92,-215.52 895.92,-215.52 901.92,-221.52 901.92,-227.52 901.92,-227.52 901.92,-283.04 901.92,-283.04 901.92,-289.04 895.92,-295.04 889.92,-295.04"/>
<text xml:space="preserve" text-anchor="start" x="662.66" y="-279.28" font-family="arial" font-weight="bold" font-size="12.00" fill="#000000">The documented rationale does not</text>
<text xml:space="preserve" text-anchor="start" x="733.99" y="-267.28" font-family="arial" font-weight="bold" font-size="12.00" fill="#000000"> settle FSx</text>
<text xml:space="preserve" text-anchor="start" x="679.32" y="-250.08" font-family="arial" font-size="11.00" fill="#000000">The performance claim is a gate to</text>
<text xml:space="preserve" text-anchor="start" x="666.49" y="-236.88" font-family="arial" font-size="11.00" fill="#000000"> measure against FSx for OpenZFS, not</text>
<text xml:space="preserve" text-anchor="start" x="720.58" y="-223.68" font-family="arial" font-size="11.00" fill="#000000"> a finding about it.</text>
</a>
</g>
</g>
<!-- n11 -->
<g id="node12" class="node">
<title>n11</title>
<g id="a_node12"><a xlink:title="The Data Science Pack has already decided this question.">
<path fill="#c3ccd4" stroke="black" d="M889.92,-469.96C889.92,-469.96 638.08,-469.96 638.08,-469.96 632.08,-469.96 626.08,-463.96 626.08,-457.96 626.08,-457.96 626.08,-425.24 626.08,-425.24 626.08,-419.24 632.08,-413.24 638.08,-413.24 638.08,-413.24 889.92,-413.24 889.92,-413.24 895.92,-413.24 901.92,-419.24 901.92,-425.24 901.92,-425.24 901.92,-457.96 901.92,-457.96 901.92,-463.96 895.92,-469.96 889.92,-469.96"/>
<text xml:space="preserve" text-anchor="start" x="649.98" y="-454.2" font-family="arial" font-weight="bold" font-size="12.00" fill="#000000">Homes are RWO by documented design</text>
<text xml:space="preserve" text-anchor="start" x="676.56" y="-434.6" font-family="arial" font-size="11.00" fill="#000000">The Data Science Pack has already</text>
<text xml:space="preserve" text-anchor="start" x="709.27" y="-421.4" font-family="arial" font-size="11.00" fill="#000000"> decided this question.</text>
</a>
</g>
</g>
<!-- n3&#45;&gt;n11 -->
<g id="edge3" class="edge">
<title>n3&#45;&gt;n11</title>
<g id="a_edge3"><a xlink:title="undercut">
<path fill="none" stroke="#8a6bb0" stroke-width="2.5" d="M764,-295.37C764,-325.56 764,-367.29 764,-398.27"/>
<polygon fill="#8a6bb0" stroke="#8a6bb0" stroke-width="2.5" points="760.15,-398.16 764,-409.16 767.85,-398.16 760.15,-398.16"/>
</a>
</g>
</g>
<!-- n4 -->
<g id="node5" class="node">
<title>n4</title>
<g id="a_node5"><a xlink:title="If FSx meets the home&#45;directory performance gate, moving homes onto it is a larger simplification than scoping Longhorn to RWX.">
<path fill="white" stroke="#c3ccd4" stroke-width="2" d="M279.92,-629.88C279.92,-629.88 28.08,-629.88 28.08,-629.88 22.08,-629.88 16.08,-623.88 16.08,-617.88 16.08,-617.88 16.08,-549.16 16.08,-549.16 16.08,-543.16 22.08,-537.16 28.08,-537.16 28.08,-537.16 279.92,-537.16 279.92,-537.16 285.92,-537.16 291.92,-543.16 291.92,-549.16 291.92,-549.16 291.92,-617.88 291.92,-617.88 291.92,-623.88 285.92,-629.88 279.92,-629.88"/>
<text xml:space="preserve" text-anchor="start" x="52.64" y="-614.12" font-family="arial" font-weight="bold" font-size="12.00" fill="#000000">RWX homes are the stronger shape</text>
<text xml:space="preserve" text-anchor="start" x="100.98" y="-602.12" font-family="arial" font-weight="bold" font-size="12.00" fill="#000000"> if they benchmark</text>
<text xml:space="preserve" text-anchor="start" x="75.75" y="-584.92" font-family="arial" font-size="11.00" fill="#000000">If FSx meets the home&#45;directory</text>
<text xml:space="preserve" text-anchor="start" x="58.31" y="-571.72" font-family="arial" font-size="11.00" fill="#000000"> performance gate, moving homes onto</text>
<text xml:space="preserve" text-anchor="start" x="78.8" y="-558.52" font-family="arial" font-size="11.00" fill="#000000"> it is a larger simplification than</text>
<text xml:space="preserve" text-anchor="start" x="86.74" y="-545.32" font-family="arial" font-size="11.00" fill="#000000"> scoping Longhorn to RWX.</text>
</a>
</g>
</g>
<!-- n4&#45;&gt;n0 -->
<g id="edge1" class="edge">
<title>n4&#45;&gt;n0</title>
<g id="a_edge1"><a xlink:title="support">
<path fill="none" stroke="#5c9e6f" stroke-width="2.5" d="M292.23,-627.96C297.2,-629.26 302.14,-630.5 307,-631.68 440.38,-663.95 480.4,-643.56 611,-685.68 627.93,-691.14 645.39,-698.12 662.17,-705.59"/>
<polygon fill="#5c9e6f" stroke="#5c9e6f" stroke-width="2.5" points="660.43,-709.02 672.03,-710.09 663.63,-702.02 660.43,-709.02"/>
</a>
</g>
</g>
<!-- n7 -->
<g id="node8" class="node">
<title>n7</title>
<g id="a_node8"><a xlink:title="Benchmark conda and pixi environment creation, Git operations, and notebook autosave against FSx for OpenZFS — and EFS Elastic throughput mode if it is to be reconsidered — before proposing RWX homes. Failing this gate kills the shape; passing it makes the split shape an interim step rather than the destination. ">
<path fill="white" stroke="#b3762f" stroke-width="2" d="M279.92,-834.8C279.92,-834.8 28.08,-834.8 28.08,-834.8 22.08,-834.8 16.08,-828.8 16.08,-822.8 16.08,-822.8 16.08,-697.68 16.08,-697.68 16.08,-691.68 22.08,-685.68 28.08,-685.68 28.08,-685.68 279.92,-685.68 279.92,-685.68 285.92,-685.68 291.92,-691.68 291.92,-697.68 291.92,-697.68 291.92,-822.8 291.92,-822.8 291.92,-828.8 285.92,-834.8 279.92,-834.8"/>
<text xml:space="preserve" text-anchor="start" x="85.31" y="-819.04" font-family="arial" font-weight="bold" font-size="12.00" fill="#000000">Home performance gate</text>
<text xml:space="preserve" text-anchor="start" x="57.39" y="-799.44" font-family="arial" font-size="11.00" fill="#000000">Benchmark conda and pixi environment</text>
<text xml:space="preserve" text-anchor="start" x="83.38" y="-786.24" font-family="arial" font-size="11.00" fill="#000000"> creation, Git operations, and</text>
<text xml:space="preserve" text-anchor="start" x="67.47" y="-773.04" font-family="arial" font-size="11.00" fill="#000000"> notebook autosave against FSx for</text>
<text xml:space="preserve" text-anchor="start" x="54.03" y="-759.84" font-family="arial" font-size="11.00" fill="#000000"> OpenZFS — and EFS Elastic throughput</text>
<text xml:space="preserve" text-anchor="start" x="71.46" y="-746.64" font-family="arial" font-size="11.00" fill="#000000"> mode if it is to be reconsidered —</text>
<text xml:space="preserve" text-anchor="start" x="59.54" y="-733.44" font-family="arial" font-size="11.00" fill="#000000"> before proposing RWX homes. Failing</text>
<text xml:space="preserve" text-anchor="start" x="73.29" y="-720.24" font-family="arial" font-size="11.00" fill="#000000"> this gate kills the shape; passing</text>
<text xml:space="preserve" text-anchor="start" x="69.32" y="-707.04" font-family="arial" font-size="11.00" fill="#000000"> it makes the split shape an interim</text>
<text xml:space="preserve" text-anchor="start" x="73.59" y="-693.84" font-family="arial" font-size="11.00" fill="#000000"> step rather than the destination. </text>
</a>
</g>
</g>
<!-- n4&#45;&gt;n7 -->
<g id="edge8" class="edge">
<title>n4&#45;&gt;n7</title>
<g id="a_edge8"><a xlink:title="support">
<path fill="none" stroke="#5c9e6f" stroke-width="2.5" d="M154,-629.97C154,-642.5 154,-656.54 154,-670.63"/>
<polygon fill="#5c9e6f" stroke="#5c9e6f" stroke-width="2.5" points="150.15,-670.47 154,-681.47 157.85,-670.47 150.15,-670.47"/>
</a>
</g>
</g>
<!-- n5 -->
<g id="node6" class="node">
<title>n5</title>
<g id="a_node6"><a xlink:title="The RWX&#45;homes shape trades per&#45;volume independence against storage&#45;media failure for a managed availability SLA, and that trade must be priced rather than assumed favourable.">
<path fill="white" stroke="#c3ccd4" stroke-width="2" d="M1194.92,-631.68C1194.92,-631.68 943.08,-631.68 943.08,-631.68 937.08,-631.68 931.08,-625.68 931.08,-619.68 931.08,-619.68 931.08,-547.36 931.08,-547.36 931.08,-541.36 937.08,-535.36 943.08,-535.36 943.08,-535.36 1194.92,-535.36 1194.92,-535.36 1200.92,-535.36 1206.92,-541.36 1206.92,-547.36 1206.92,-547.36 1206.92,-619.68 1206.92,-619.68 1206.92,-625.68 1200.92,-631.68 1194.92,-631.68"/>
<text xml:space="preserve" text-anchor="start" x="984.97" y="-615.92" font-family="arial" font-weight="bold" font-size="12.00" fill="#000000">Failure isolation is a real cost</text>
<text xml:space="preserve" text-anchor="start" x="964.46" y="-596.32" font-family="arial" font-size="11.00" fill="#000000">The RWX&#45;homes shape trades per&#45;volume</text>
<text xml:space="preserve" text-anchor="start" x="976.96" y="-583.12" font-family="arial" font-size="11.00" fill="#000000"> independence against storage&#45;media</text>
<text xml:space="preserve" text-anchor="start" x="988.59" y="-569.92" font-family="arial" font-size="11.00" fill="#000000"> failure for a managed availability</text>
<text xml:space="preserve" text-anchor="start" x="982.48" y="-556.72" font-family="arial" font-size="11.00" fill="#000000"> SLA, and that trade must be priced</text>
<text xml:space="preserve" text-anchor="start" x="988.29" y="-543.52" font-family="arial" font-size="11.00" fill="#000000"> rather than assumed favourable.</text>
</a>
</g>
</g>
<!-- n5&#45;&gt;n0 -->
<g id="edge5" class="edge">
<title>n5&#45;&gt;n0</title>
<g id="a_edge5"><a xlink:title="attack">
<path fill="none" stroke="#c26060" stroke-width="2.5" d="M986.06,-632.03C947.06,-654.37 900.33,-681.14 859.82,-704.35"/>
<polygon fill="#c26060" stroke="#c26060" stroke-width="2.5" points="858.1,-700.9 850.47,-709.7 861.93,-707.58 858.1,-700.9"/>
</a>
</g>
</g>
<!-- n6 -->
<g id="node7" class="node">
<title>n6</title>
<g id="a_node7"><a xlink:title="Per&#45;volume independence is a genuine but narrow advantage — it covers storage&#45;media failure and nothing else — and it is not a reason to treat the current design as the lower&#45;blast&#45;radius option overall.">
<path fill="white" stroke="#c3ccd4" stroke-width="2" d="M1194.92,-314.84C1194.92,-314.84 943.08,-314.84 943.08,-314.84 937.08,-314.84 931.08,-308.84 931.08,-302.84 931.08,-302.84 931.08,-207.72 931.08,-207.72 931.08,-201.72 937.08,-195.72 943.08,-195.72 943.08,-195.72 1194.92,-195.72 1194.92,-195.72 1200.92,-195.72 1206.92,-201.72 1206.92,-207.72 1206.92,-207.72 1206.92,-302.84 1206.92,-302.84 1206.92,-308.84 1200.92,-314.84 1194.92,-314.84"/>
<text xml:space="preserve" text-anchor="start" x="973.97" y="-299.08" font-family="arial" font-weight="bold" font-size="12.00" fill="#000000">Isolation is a narrower advantage</text>
<text xml:space="preserve" text-anchor="start" x="1032" y="-287.08" font-family="arial" font-weight="bold" font-size="12.00" fill="#000000"> than it looks</text>
<text xml:space="preserve" text-anchor="start" x="973.6" y="-269.88" font-family="arial" font-size="11.00" fill="#000000">Per&#45;volume independence is a genuine</text>
<text xml:space="preserve" text-anchor="start" x="986.15" y="-256.68" font-family="arial" font-size="11.00" fill="#000000"> but narrow advantage — it covers</text>
<text xml:space="preserve" text-anchor="start" x="985.53" y="-243.48" font-family="arial" font-size="11.00" fill="#000000"> storage&#45;media failure and nothing</text>
<text xml:space="preserve" text-anchor="start" x="992.57" y="-230.28" font-family="arial" font-size="11.00" fill="#000000"> else — and it is not a reason to</text>
<text xml:space="preserve" text-anchor="start" x="994.4" y="-217.08" font-family="arial" font-size="11.00" fill="#000000"> treat the current design as the</text>
<text xml:space="preserve" text-anchor="start" x="988.3" y="-203.88" font-family="arial" font-size="11.00" fill="#000000"> lower&#45;blast&#45;radius option overall.</text>
</a>
</g>
</g>
<!-- n13 -->
<g id="node14" class="node">
<title>n13</title>
<g id="a_node14"><a xlink:title="Independent per&#45;volume failure is a real property of the current design.">
<path fill="#c3ccd4" stroke="black" d="M1194.92,-474.76C1194.92,-474.76 943.08,-474.76 943.08,-474.76 937.08,-474.76 931.08,-468.76 931.08,-462.76 931.08,-462.76 931.08,-420.44 931.08,-420.44 931.08,-414.44 937.08,-408.44 943.08,-408.44 943.08,-408.44 1194.92,-408.44 1194.92,-408.44 1200.92,-408.44 1206.92,-414.44 1206.92,-420.44 1206.92,-420.44 1206.92,-462.76 1206.92,-462.76 1206.92,-468.76 1200.92,-474.76 1194.92,-474.76"/>
<text xml:space="preserve" text-anchor="start" x="980.97" y="-459" font-family="arial" font-weight="bold" font-size="12.00" fill="#000000">Single filesystem concentrates</text>
<text xml:space="preserve" text-anchor="start" x="997.99" y="-447" font-family="arial" font-weight="bold" font-size="12.00" fill="#000000"> the home failure domain</text>
<text xml:space="preserve" text-anchor="start" x="982.78" y="-429.8" font-family="arial" font-size="11.00" fill="#000000">Independent per&#45;volume failure is a</text>
<text xml:space="preserve" text-anchor="start" x="983.4" y="-416.6" font-family="arial" font-size="11.00" fill="#000000"> real property of the current design.</text>
</a>
</g>
</g>
<!-- n6&#45;&gt;n13 -->
<g id="edge7" class="edge">
<title>n6&#45;&gt;n13</title>
<g id="a_edge7"><a xlink:title="undercut">
<path fill="none" stroke="#8a6bb0" stroke-width="2.5" d="M1069,-315.11C1069,-340.46 1069,-369.71 1069,-393.59"/>
<polygon fill="#8a6bb0" stroke="#8a6bb0" stroke-width="2.5" points="1065.15,-393.26 1069,-404.26 1072.85,-393.26 1065.15,-393.26"/>
</a>
</g>
</g>
<!-- n8 -->
<g id="node9" class="node">
<title>n8</title>
<g id="a_node9"><a xlink:title="The affinity term is unconditional in the pack&#39;s `modify_pod_hook`, so RWX homes would still be pinned pointlessly. Removing the pin is a Data Science Pack change — a config switch, or keying off the home volume&#39;s access mode — and must be raised with the pack&#39;s owners early, since without it the RWX&#45;homes shape keeps the constraint it exists to remove. ">
<path fill="white" stroke="#b3762f" stroke-width="2" d="M279.92,-347.84C279.92,-347.84 28.08,-347.84 28.08,-347.84 22.08,-347.84 16.08,-341.84 16.08,-335.84 16.08,-335.84 16.08,-174.72 16.08,-174.72 16.08,-168.72 22.08,-162.72 28.08,-162.72 28.08,-162.72 279.92,-162.72 279.92,-162.72 285.92,-162.72 291.92,-168.72 291.92,-174.72 291.92,-174.72 291.92,-335.84 291.92,-335.84 291.92,-341.84 285.92,-347.84 279.92,-347.84"/>
<text xml:space="preserve" text-anchor="start" x="66.32" y="-332.08" font-family="arial" font-weight="bold" font-size="12.00" fill="#000000">Affinity pin needs an upstream</text>
<text xml:space="preserve" text-anchor="start" x="133.66" y="-320.08" font-family="arial" font-weight="bold" font-size="12.00" fill="#000000"> switch</text>
<text xml:space="preserve" text-anchor="start" x="69.32" y="-302.88" font-family="arial" font-size="11.00" fill="#000000">The affinity term is unconditional in</text>
<text xml:space="preserve" text-anchor="start" x="56.04" y="-289.68" font-family="arial" font-size="11.00" fill="#000000"> the pack&#39;s `modify_pod_hook`, so RWX</text>
<text xml:space="preserve" text-anchor="start" x="84.9" y="-276.48" font-family="arial" font-size="11.00" fill="#000000"> homes would still be pinned</text>
<text xml:space="preserve" text-anchor="start" x="70.85" y="-263.28" font-family="arial" font-size="11.00" fill="#000000"> pointlessly. Removing the pin is a</text>
<text xml:space="preserve" text-anchor="start" x="59.53" y="-250.08" font-family="arial" font-size="11.00" fill="#000000"> Data Science Pack change — a config</text>
<text xml:space="preserve" text-anchor="start" x="79.72" y="-236.88" font-family="arial" font-size="11.00" fill="#000000"> switch, or keying off the home</text>
<text xml:space="preserve" text-anchor="start" x="59.1" y="-223.68" font-family="arial" font-size="11.00" fill="#000000"> volume&#39;s access mode — and must be</text>
<text xml:space="preserve" text-anchor="start" x="65.83" y="-210.48" font-family="arial" font-size="11.00" fill="#000000"> raised with the pack&#39;s owners early,</text>
<text xml:space="preserve" text-anchor="start" x="58.01" y="-197.28" font-family="arial" font-size="11.00" fill="#000000"> since without it the RWX&#45;homes shape</text>
<text xml:space="preserve" text-anchor="start" x="77.27" y="-184.08" font-family="arial" font-size="11.00" fill="#000000"> keeps the constraint it exists to</text>
<text xml:space="preserve" text-anchor="start" x="131.08" y="-170.88" font-family="arial" font-size="11.00" fill="#000000"> remove. </text>
</a>
</g>
</g>
<!-- n9 -->
<g id="node10" class="node">
<title>n9</title>
<g id="a_node10"><a xlink:title="RWX homes remove a cluster of separate problems rather than mitigating each one.">
<path fill="#c3ccd4" stroke="black" d="M279.92,-481.36C279.92,-481.36 28.08,-481.36 28.08,-481.36 22.08,-481.36 16.08,-475.36 16.08,-469.36 16.08,-469.36 16.08,-413.84 16.08,-413.84 16.08,-407.84 22.08,-401.84 28.08,-401.84 28.08,-401.84 279.92,-401.84 279.92,-401.84 285.92,-401.84 291.92,-407.84 291.92,-413.84 291.92,-413.84 291.92,-469.36 291.92,-469.36 291.92,-475.36 285.92,-481.36 279.92,-481.36"/>
<text xml:space="preserve" text-anchor="start" x="52.31" y="-465.6" font-family="arial" font-weight="bold" font-size="12.00" fill="#000000">Homes on managed RWX dissolves</text>
<text xml:space="preserve" text-anchor="start" x="80.3" y="-453.6" font-family="arial" font-weight="bold" font-size="12.00" fill="#000000"> several problems at once</text>
<text xml:space="preserve" text-anchor="start" x="74.84" y="-436.4" font-family="arial" font-size="11.00" fill="#000000">RWX homes remove a cluster of</text>
<text xml:space="preserve" text-anchor="start" x="78.79" y="-423.2" font-family="arial" font-size="11.00" fill="#000000"> separate problems rather than</text>
<text xml:space="preserve" text-anchor="start" x="103.25" y="-410" font-family="arial" font-size="11.00" fill="#000000"> mitigating each one.</text>
</a>
</g>
</g>
<!-- n8&#45;&gt;n9 -->
<g id="edge9" class="edge">
<title>n8&#45;&gt;n9</title>
<g id="a_edge9"><a xlink:title="undercut">
<path fill="none" stroke="#8a6bb0" stroke-width="2.5" d="M154,-348.17C154,-361.36 154,-374.55 154,-386.68"/>
<polygon fill="#8a6bb0" stroke="#8a6bb0" stroke-width="2.5" points="150.15,-386.59 154,-397.59 157.85,-386.59 150.15,-386.59"/>
</a>
</g>
</g>
<!-- n9&#45;&gt;n4 -->
<g id="edge10" class="edge">
<title>n9&#45;&gt;n4</title>
<g id="a_edge10"><a xlink:title="support">
<path fill="none" stroke="#5c9e6f" stroke-width="2.5" d="M154,-481.58C154,-494.16 154,-508.43 154,-522.19"/>
<polygon fill="#5c9e6f" stroke="#5c9e6f" stroke-width="2.5" points="150.15,-522.04 154,-533.04 157.85,-522.04 150.15,-522.04"/>
</a>
</g>
</g>
<!-- n10 -->
<g id="node11" class="node">
<title>n10</title>
<g id="a_node11"><a xlink:title="The capacity ceiling is an observed problem in the shipped per&#45;user design, not a theoretical objection to extending it to groups.">
<path fill="#c3ccd4" stroke="black" d="M584.92,-629.88C584.92,-629.88 333.08,-629.88 333.08,-629.88 327.08,-629.88 321.08,-623.88 321.08,-617.88 321.08,-617.88 321.08,-549.16 321.08,-549.16 321.08,-543.16 327.08,-537.16 333.08,-537.16 333.08,-537.16 584.92,-537.16 584.92,-537.16 590.92,-537.16 596.92,-543.16 596.92,-549.16 596.92,-549.16 596.92,-617.88 596.92,-617.88 596.92,-623.88 590.92,-629.88 584.92,-629.88"/>
<text xml:space="preserve" text-anchor="start" x="387.32" y="-614.12" font-family="arial" font-weight="bold" font-size="12.00" fill="#000000">The co&#45;location ceiling is</text>
<text xml:space="preserve" text-anchor="start" x="409.66" y="-602.12" font-family="arial" font-weight="bold" font-size="12.00" fill="#000000"> already being hit</text>
<text xml:space="preserve" text-anchor="start" x="373.4" y="-584.92" font-family="arial" font-size="11.00" fill="#000000">The capacity ceiling is an observed</text>
<text xml:space="preserve" text-anchor="start" x="379.82" y="-571.72" font-family="arial" font-size="11.00" fill="#000000"> problem in the shipped per&#45;user</text>
<text xml:space="preserve" text-anchor="start" x="375.53" y="-558.52" font-family="arial" font-size="11.00" fill="#000000"> design, not a theoretical objection</text>
<text xml:space="preserve" text-anchor="start" x="397.24" y="-545.32" font-family="arial" font-size="11.00" fill="#000000"> to extending it to groups.</text>
</a>
</g>
</g>
<!-- n10&#45;&gt;n0 -->
<g id="edge2" class="edge">
<title>n10&#45;&gt;n0</title>
<g id="a_edge2"><a xlink:title="support">
<path fill="none" stroke="#5c9e6f" stroke-width="2.5" d="M538.74,-630.2C578.41,-652.92 626.65,-680.56 668.31,-704.42"/>
<polygon fill="#5c9e6f" stroke="#5c9e6f" stroke-width="2.5" points="666.26,-707.69 677.72,-709.81 670.09,-701.01 666.26,-707.69"/>
</a>
</g>
</g>
<!-- n10&#45;&gt;n1 -->
<g id="edge6" class="edge">
<title>n10&#45;&gt;n1</title>
<g id="a_edge6"><a xlink:title="support">
<path fill="none" stroke="#5c9e6f" stroke-width="2.5" d="M459,-629.97C459,-650.52 459,-675.13 459,-697.34"/>
<polygon fill="#5c9e6f" stroke="#5c9e6f" stroke-width="2.5" points="455.15,-697.1 459,-708.1 462.85,-697.1 455.15,-697.1"/>
</a>
</g>
</g>
<!-- n11&#45;&gt;n2 -->
<g id="edge11" class="edge">
<title>n11&#45;&gt;n2</title>
<g id="a_edge11"><a xlink:title="support">
<path fill="none" stroke="#5c9e6f" stroke-width="2.5" d="M764,-470.24C764,-490.27 764,-517.71 764,-540.44"/>
<polygon fill="#5c9e6f" stroke="#5c9e6f" stroke-width="2.5" points="760.15,-540.15 764,-551.15 767.85,-540.15 760.15,-540.15"/>
</a>
</g>
</g>
<!-- n12 -->
<g id="node13" class="node">
<title>n12</title>
<g id="a_node13"><a xlink:title="The documented rationale is sound about the RWX implementations it was written against, and silent about the one under evaluation.">
<path fill="#c3ccd4" stroke="black" d="M889.92,-108.72C889.92,-108.72 638.08,-108.72 638.08,-108.72 632.08,-108.72 626.08,-102.72 626.08,-96.72 626.08,-96.72 626.08,-28 626.08,-28 626.08,-22 632.08,-16 638.08,-16 638.08,-16 889.92,-16 889.92,-16 895.92,-16 901.92,-22 901.92,-28 901.92,-28 901.92,-96.72 901.92,-96.72 901.92,-102.72 895.92,-108.72 889.92,-108.72"/>
<text xml:space="preserve" text-anchor="start" x="691.64" y="-92.96" font-family="arial" font-weight="bold" font-size="12.00" fill="#000000">The performance claim is</text>
<text xml:space="preserve" text-anchor="start" x="693.65" y="-80.96" font-family="arial" font-weight="bold" font-size="12.00" fill="#000000"> implementation&#45;specific</text>
<text xml:space="preserve" text-anchor="start" x="678.08" y="-63.76" font-family="arial" font-size="11.00" fill="#000000">The documented rationale is sound</text>
<text xml:space="preserve" text-anchor="start" x="668.01" y="-50.56" font-family="arial" font-size="11.00" fill="#000000"> about the RWX implementations it was</text>
<text xml:space="preserve" text-anchor="start" x="685.12" y="-37.36" font-family="arial" font-size="11.00" fill="#000000"> written against, and silent about</text>
<text xml:space="preserve" text-anchor="start" x="700.4" y="-24.16" font-family="arial" font-size="11.00" fill="#000000"> the one under evaluation.</text>
</a>
</g>
</g>
<!-- n12&#45;&gt;n3 -->
<g id="edge12" class="edge">
<title>n12&#45;&gt;n3</title>
<g id="a_edge12"><a xlink:title="support">
<path fill="none" stroke="#5c9e6f" stroke-width="2.5" d="M764,-109.09C764,-136.61 764,-171.79 764,-200.63"/>
<polygon fill="#5c9e6f" stroke="#5c9e6f" stroke-width="2.5" points="760.15,-200.27 764,-211.27 767.85,-200.27 760.15,-200.27"/>
</a>
</g>
</g>
<!-- n13&#45;&gt;n5 -->
<g id="edge13" class="edge">
<title>n13&#45;&gt;n5</title>
<g id="a_edge13"><a xlink:title="support">
<path fill="none" stroke="#5c9e6f" stroke-width="2.5" d="M1069,-475.05C1069,-488.57 1069,-504.75 1069,-520.39"/>
<polygon fill="#5c9e6f" stroke="#5c9e6f" stroke-width="2.5" points="1065.15,-520.34 1069,-531.34 1072.85,-520.34 1065.15,-520.34"/>
</a>
</g>
</g>
<!-- n14 -->
<g id="node15" class="node">
<title>n14</title>
<g id="a_node15"><a xlink:title="The isolation argument compares a managed filesystem against a per&#45;volume ideal that Longhorn does not deliver either.">
<path fill="#c3ccd4" stroke="black" d="M1194.92,-108.72C1194.92,-108.72 943.08,-108.72 943.08,-108.72 937.08,-108.72 931.08,-102.72 931.08,-96.72 931.08,-96.72 931.08,-28 931.08,-28 931.08,-22 937.08,-16 943.08,-16 943.08,-16 1194.92,-16 1194.92,-16 1200.92,-16 1206.92,-22 1206.92,-28 1206.92,-28 1206.92,-96.72 1206.92,-96.72 1206.92,-102.72 1200.92,-108.72 1194.92,-108.72"/>
<text xml:space="preserve" text-anchor="start" x="1006.65" y="-92.96" font-family="arial" font-weight="bold" font-size="12.00" fill="#000000">Longhorn is already a</text>
<text xml:space="preserve" text-anchor="start" x="989.65" y="-80.96" font-family="arial" font-weight="bold" font-size="12.00" fill="#000000"> cluster&#45;wide failure domain</text>
<text xml:space="preserve" text-anchor="start" x="982.79" y="-63.76" font-family="arial" font-size="11.00" fill="#000000">The isolation argument compares a</text>
<text xml:space="preserve" text-anchor="start" x="994.71" y="-50.56" font-family="arial" font-size="11.00" fill="#000000"> managed filesystem against a</text>
<text xml:space="preserve" text-anchor="start" x="977.88" y="-37.36" font-family="arial" font-size="11.00" fill="#000000"> per&#45;volume ideal that Longhorn does</text>
<text xml:space="preserve" text-anchor="start" x="1025.28" y="-24.16" font-family="arial" font-size="11.00" fill="#000000"> not deliver either.</text>
</a>
</g>
</g>
<!-- n14&#45;&gt;n6 -->
<g id="edge14" class="edge">
<title>n14&#45;&gt;n6</title>
<g id="a_edge14"><a xlink:title="support">
<path fill="none" stroke="#5c9e6f" stroke-width="2.5" d="M1069,-109.09C1069,-130.56 1069,-156.68 1069,-180.82"/>
<polygon fill="#5c9e6f" stroke="#5c9e6f" stroke-width="2.5" points="1065.15,-180.75 1069,-191.75 1072.85,-180.75 1065.15,-180.75"/>
</a>
</g>
</g>
</g>
</svg>
