<?xml version="1.0" encoding="UTF-8" standalone="no"?>
<!DOCTYPE svg PUBLIC "-//W3C//DTD SVG 1.1//EN"
 "http://www.w3.org/Graphics/SVG/1.1/DTD/svg11.dtd">
<!-- Generated by graphviz version 15.1.0 (0)
 -->
<!-- Title: Argument Map Pages: 1 -->
<svg width="2441pt" height="1143pt"
 viewBox="0.00 0.00 2441.00 1143.00" xmlns="http://www.w3.org/2000/svg" xmlns:xlink="http://www.w3.org/1999/xlink">
<g id="graph0" class="graph" transform="scale(1 1) rotate(0) translate(4 1139.12)">
<title>Argument Map</title>
<g id="clust1" class="cluster">
<title>cluster_1</title>
<polygon fill="#f4f5f6" stroke="#f4f5f6" points="1523,-354.24 1523,-1127.12 2425,-1127.12 2425,-354.24 1523,-354.24"/>
<text xml:space="preserve" text-anchor="start" x="1929.98" y="-1111.12" font-family="arial" font-size="12.00" fill="#000000">Storage strategy</text>
</g>
<g id="clust2" class="cluster">
<title>cluster_2</title>
<polygon fill="#f4f5f6" stroke="#f4f5f6" points="8,-659.36 8,-973.8 605,-973.8 605,-659.36 8,-659.36"/>
<text xml:space="preserve" text-anchor="start" x="248.46" y="-957.8" font-family="arial" font-size="12.00" fill="#000000">Longhorn everywhere</text>
</g>
<g id="clust3" class="cluster">
<title>cluster_3</title>
<polygon fill="#f4f5f6" stroke="#f4f5f6" points="613,-8 613,-803.68 1515,-803.68 1515,-8 613,-8"/>
<text xml:space="preserve" text-anchor="start" x="990.95" y="-787.68" font-family="arial" font-size="12.00" fill="#000000">Topic: the shared data path</text>
</g>
<!-- n0 -->
<g id="node1" class="node">
<title>n0</title>
<g id="a_node1"><a xlink:title="Each pack requests the access mode its workload needs; the cluster does not impose RWX on every PVC. ">
<path fill="white" stroke="#c3ccd4" stroke-width="2" d="M1946.92,-1096.72C1946.92,-1096.72 1695.08,-1096.72 1695.08,-1096.72 1689.08,-1096.72 1683.08,-1090.72 1683.08,-1084.72 1683.08,-1084.72 1683.08,-1029.2 1683.08,-1029.2 1683.08,-1023.2 1689.08,-1017.2 1695.08,-1017.2 1695.08,-1017.2 1946.92,-1017.2 1946.92,-1017.2 1952.92,-1017.2 1958.92,-1023.2 1958.92,-1029.2 1958.92,-1029.2 1958.92,-1084.72 1958.92,-1084.72 1958.92,-1090.72 1952.92,-1096.72 1946.92,-1096.72"/>
<text xml:space="preserve" text-anchor="start" x="1739.65" y="-1080.96" font-family="arial" font-weight="bold" font-size="12.00" fill="#000000">Access mode belongs to the</text>
<text xml:space="preserve" text-anchor="start" x="1793" y="-1068.96" font-family="arial" font-weight="bold" font-size="12.00" fill="#000000"> workload</text>
<text xml:space="preserve" text-anchor="start" x="1729.59" y="-1051.76" font-family="arial" font-size="11.00" fill="#000000">Each pack requests the access mode</text>
<text xml:space="preserve" text-anchor="start" x="1732.04" y="-1038.56" font-family="arial" font-size="11.00" fill="#000000"> its workload needs; the cluster does</text>
<text xml:space="preserve" text-anchor="start" x="1739.69" y="-1025.36" font-family="arial" font-size="11.00" fill="#000000"> not impose RWX on every PVC. </text>
</a>
</g>
</g>
<!-- n1 -->
<g id="node2" class="node">
<title>n1</title>
<g id="a_node2"><a xlink:title="Nebari should standardize the RWX contract and acceptance criteria while allowing each infrastructure provider to supply the implementation. ">
<path fill="white" stroke="#c3ccd4" stroke-width="2" d="M1946.92,-963.2C1946.92,-963.2 1695.08,-963.2 1695.08,-963.2 1689.08,-963.2 1683.08,-957.2 1683.08,-951.2 1683.08,-951.2 1683.08,-878.88 1683.08,-878.88 1683.08,-872.88 1689.08,-866.88 1695.08,-866.88 1695.08,-866.88 1946.92,-866.88 1946.92,-866.88 1952.92,-866.88 1958.92,-872.88 1958.92,-878.88 1958.92,-878.88 1958.92,-951.2 1958.92,-951.2 1958.92,-957.2 1952.92,-963.2 1946.92,-963.2"/>
<text xml:space="preserve" text-anchor="start" x="1731.64" y="-947.44" font-family="arial" font-weight="bold" font-size="12.00" fill="#000000">Provider&#45;specific RWX strategy</text>
<text xml:space="preserve" text-anchor="start" x="1733.57" y="-927.84" font-family="arial" font-size="11.00" fill="#000000">Nebari should standardize the RWX</text>
<text xml:space="preserve" text-anchor="start" x="1741.51" y="-914.64" font-family="arial" font-size="11.00" fill="#000000"> contract and acceptance criteria</text>
<text xml:space="preserve" text-anchor="start" x="1738.46" y="-901.44" font-family="arial" font-size="11.00" fill="#000000"> while allowing each infrastructure</text>
<text xml:space="preserve" text-anchor="start" x="1766.89" y="-888.24" font-family="arial" font-size="11.00" fill="#000000"> provider to supply the</text>
<text xml:space="preserve" text-anchor="start" x="1779.12" y="-875.04" font-family="arial" font-size="11.00" fill="#000000"> implementation. </text>
</a>
</g>
</g>
<!-- n1&#45;&gt;n0 -->
<g id="edge1" class="edge">
<title>n1&#45;&gt;n0</title>
<g id="a_edge1"><a xlink:title="support">
<path fill="none" stroke="#5c9e6f" stroke-width="2.5" d="M1821,-963.41C1821,-975.95 1821,-989.57 1821,-1002.41"/>
<polygon fill="#5c9e6f" stroke="#5c9e6f" stroke-width="2.5" points="1817.15,-1002.22 1821,-1013.22 1824.85,-1002.22 1817.15,-1002.22"/>
</a>
</g>
</g>
<!-- n2 -->
<g id="node3" class="node">
<title>n2</title>
<g id="a_node3"><a xlink:title="The architecture may use any managed RWX provider that satisfies the performance, availability, operations, backup, and cost gates.">
<path fill="white" stroke="#c3ccd4" stroke-width="2" d="M2099.92,-781.68C2099.92,-781.68 1848.08,-781.68 1848.08,-781.68 1842.08,-781.68 1836.08,-775.68 1836.08,-769.68 1836.08,-769.68 1836.08,-710.56 1836.08,-710.56 1836.08,-704.56 1842.08,-698.56 1848.08,-698.56 1848.08,-698.56 2099.92,-698.56 2099.92,-698.56 2105.92,-698.56 2111.92,-704.56 2111.92,-710.56 2111.92,-710.56 2111.92,-769.68 2111.92,-769.68 2111.92,-775.68 2105.92,-781.68 2099.92,-781.68"/>
<text xml:space="preserve" text-anchor="start" x="1868.65" y="-765.92" font-family="arial" font-weight="bold" font-size="12.00" fill="#000000">Managed AWS storage is conditional</text>
<text xml:space="preserve" text-anchor="start" x="1877.09" y="-746.32" font-family="arial" font-size="11.00" fill="#000000">The architecture may use any managed</text>
<text xml:space="preserve" text-anchor="start" x="1896.97" y="-733.12" font-family="arial" font-size="11.00" fill="#000000"> RWX provider that satisfies the</text>
<text xml:space="preserve" text-anchor="start" x="1911.64" y="-719.92" font-family="arial" font-size="11.00" fill="#000000"> performance, availability,</text>
<text xml:space="preserve" text-anchor="start" x="1885.64" y="-706.72" font-family="arial" font-size="11.00" fill="#000000"> operations, backup, and cost gates.</text>
</a>
</g>
</g>
<!-- n2&#45;&gt;n1 -->
<g id="edge2" class="edge">
<title>n2&#45;&gt;n1</title>
<g id="a_edge2"><a xlink:title="support">
<path fill="none" stroke="#5c9e6f" stroke-width="2.5" d="M1937.74,-782.1C1918.28,-804.1 1893.95,-831.59 1872.55,-855.77"/>
<polygon fill="#5c9e6f" stroke="#5c9e6f" stroke-width="2.5" points="1869.87,-853 1865.46,-863.79 1875.64,-858.1 1869.87,-853"/>
</a>
</g>
</g>
<!-- n3 -->
<g id="node4" class="node">
<title>n3</title>
<g id="a_node4"><a xlink:title="Shapes using managed RWX do not depend on FSx. EFS avoids a new integration, while FSx has a modeled recurring&#45;cost advantage: $122&#45;$1,127 per month at 50 users and $814&#45;$4,834 per month at 200 users. FSx must recover its one&#45;time integration and continuing maintenance cost across the expected cluster fleet and lifetime; EFS must not accumulate more recurring cost over that period than the integration work it avoids. The ranges remain uncertain because shared&#45;storage I/O and EFS lifecycle tiering are not measured. ">
<path fill="white" stroke="#b3762f" stroke-width="2" d="M2099.92,-613.36C2099.92,-613.36 1848.08,-613.36 1848.08,-613.36 1842.08,-613.36 1836.08,-607.36 1836.08,-601.36 1836.08,-601.36 1836.08,-374.24 1836.08,-374.24 1836.08,-368.24 1842.08,-362.24 1848.08,-362.24 1848.08,-362.24 2099.92,-362.24 2099.92,-362.24 2105.92,-362.24 2111.92,-368.24 2111.92,-374.24 2111.92,-374.24 2111.92,-601.36 2111.92,-601.36 2111.92,-607.36 2105.92,-613.36 2099.92,-613.36"/>
<text xml:space="preserve" text-anchor="start" x="1872.98" y="-597.6" font-family="arial" font-weight="bold" font-size="12.00" fill="#000000">Managed&#45;provider economics must</text>
<text xml:space="preserve" text-anchor="start" x="1915.66" y="-585.6" font-family="arial" font-weight="bold" font-size="12.00" fill="#000000"> amortize both costs</text>
<text xml:space="preserve" text-anchor="start" x="1885.03" y="-568.4" font-family="arial" font-size="11.00" fill="#000000">Shapes using managed RWX do not</text>
<text xml:space="preserve" text-anchor="start" x="1887.78" y="-555.2" font-family="arial" font-size="11.00" fill="#000000"> depend on FSx. EFS avoids a new</text>
<text xml:space="preserve" text-anchor="start" x="1882.28" y="-542" font-family="arial" font-size="11.00" fill="#000000"> integration, while FSx has a modeled</text>
<text xml:space="preserve" text-anchor="start" x="1910.11" y="-528.8" font-family="arial" font-size="11.00" fill="#000000"> recurring&#45;cost advantage:</text>
<text xml:space="preserve" text-anchor="start" x="1886.55" y="-515.6" font-family="arial" font-size="11.00" fill="#000000"> $122&#45;$1,127 per month at 50 users</text>
<text xml:space="preserve" text-anchor="start" x="1887.77" y="-502.4" font-family="arial" font-size="11.00" fill="#000000"> and $814&#45;$4,834 per month at 200</text>
<text xml:space="preserve" text-anchor="start" x="1882.92" y="-489.2" font-family="arial" font-size="11.00" fill="#000000"> users. FSx must recover its one&#45;time</text>
<text xml:space="preserve" text-anchor="start" x="1909.48" y="-476" font-family="arial" font-size="11.00" fill="#000000"> integration and continuing</text>
<text xml:space="preserve" text-anchor="start" x="1878.61" y="-462.8" font-family="arial" font-size="11.00" fill="#000000"> maintenance cost across the expected</text>
<text xml:space="preserve" text-anchor="start" x="1887.5" y="-449.6" font-family="arial" font-size="11.00" fill="#000000"> cluster fleet and lifetime; EFS must</text>
<text xml:space="preserve" text-anchor="start" x="1886.27" y="-436.4" font-family="arial" font-size="11.00" fill="#000000"> not accumulate more recurring cost</text>
<text xml:space="preserve" text-anchor="start" x="1912.85" y="-423.2" font-family="arial" font-size="11.00" fill="#000000"> over that period than the</text>
<text xml:space="preserve" text-anchor="start" x="1899.41" y="-410" font-family="arial" font-size="11.00" fill="#000000"> integration work it avoids. The</text>
<text xml:space="preserve" text-anchor="start" x="1890.84" y="-396.8" font-family="arial" font-size="11.00" fill="#000000"> ranges remain uncertain because</text>
<text xml:space="preserve" text-anchor="start" x="1882.6" y="-383.6" font-family="arial" font-size="11.00" fill="#000000"> shared&#45;storage I/O and EFS lifecycle</text>
<text xml:space="preserve" text-anchor="start" x="1909.8" y="-370.4" font-family="arial" font-size="11.00" fill="#000000"> tiering are not measured. </text>
</a>
</g>
</g>
<!-- n3&#45;&gt;n2 -->
<g id="edge5" class="edge">
<title>n3&#45;&gt;n2</title>
<g id="a_edge5"><a xlink:title="support">
<path fill="none" stroke="#5c9e6f" stroke-width="2.5" d="M1974,-613.59C1974,-638.11 1974,-662.65 1974,-683.44"/>
<polygon fill="#5c9e6f" stroke="#5c9e6f" stroke-width="2.5" points="1970.15,-683.42 1974,-694.42 1977.85,-683.42 1970.15,-683.42"/>
</a>
</g>
</g>
<!-- n4 -->
<g id="node5" class="node">
<title>n4</title>
<g id="a_node5"><a xlink:title="A managed AWS path adds another implementation; it does not remove Longhorn from the project.">
<path fill="white" stroke="#c3ccd4" stroke-width="2" d="M1794.92,-775.08C1794.92,-775.08 1543.08,-775.08 1543.08,-775.08 1537.08,-775.08 1531.08,-769.08 1531.08,-763.08 1531.08,-763.08 1531.08,-717.16 1531.08,-717.16 1531.08,-711.16 1537.08,-705.16 1543.08,-705.16 1543.08,-705.16 1794.92,-705.16 1794.92,-705.16 1800.92,-705.16 1806.92,-711.16 1806.92,-717.16 1806.92,-717.16 1806.92,-763.08 1806.92,-763.08 1806.92,-769.08 1800.92,-775.08 1794.92,-775.08"/>
<text xml:space="preserve" text-anchor="start" x="1585.33" y="-759.32" font-family="arial" font-weight="bold" font-size="12.00" fill="#000000">Longhorn remains supported</text>
<text xml:space="preserve" text-anchor="start" x="1580.94" y="-739.72" font-family="arial" font-size="11.00" fill="#000000">A managed AWS path adds another</text>
<text xml:space="preserve" text-anchor="start" x="1581.87" y="-726.52" font-family="arial" font-size="11.00" fill="#000000"> implementation; it does not remove</text>
<text xml:space="preserve" text-anchor="start" x="1602.96" y="-713.32" font-family="arial" font-size="11.00" fill="#000000"> Longhorn from the project.</text>
</a>
</g>
</g>
<!-- n4&#45;&gt;n1 -->
<g id="edge3" class="edge">
<title>n4&#45;&gt;n1</title>
<g id="a_edge3"><a xlink:title="support">
<path fill="none" stroke="#5c9e6f" stroke-width="2.5" d="M1699.03,-775.28C1719.18,-798.21 1746.24,-828.99 1769.75,-855.74"/>
<polygon fill="#5c9e6f" stroke="#5c9e6f" stroke-width="2.5" points="1766.59,-857.97 1776.74,-863.69 1772.37,-852.88 1766.59,-857.97"/>
</a>
</g>
</g>
<!-- n5 -->
<g id="node9" class="node">
<title>n5</title>
<g id="a_node9"><a xlink:title="Nebari should use Longhorn for RWX on every provider.">
<path fill="white" stroke="#c3ccd4" stroke-width="2" d="M584.92,-943.4C584.92,-943.4 333.08,-943.4 333.08,-943.4 327.08,-943.4 321.08,-937.4 321.08,-931.4 321.08,-931.4 321.08,-898.68 321.08,-898.68 321.08,-892.68 327.08,-886.68 333.08,-886.68 333.08,-886.68 584.92,-886.68 584.92,-886.68 590.92,-886.68 596.92,-892.68 596.92,-898.68 596.92,-898.68 596.92,-931.4 596.92,-931.4 596.92,-937.4 590.92,-943.4 584.92,-943.4"/>
<text xml:space="preserve" text-anchor="start" x="402.33" y="-927.64" font-family="arial" font-weight="bold" font-size="12.00" fill="#000000">Universal Longhorn</text>
<text xml:space="preserve" text-anchor="start" x="359.94" y="-908.04" font-family="arial" font-size="11.00" fill="#000000">Nebari should use Longhorn for RWX on</text>
<text xml:space="preserve" text-anchor="start" x="421.1" y="-894.84" font-family="arial" font-size="11.00" fill="#000000"> every provider.</text>
</a>
</g>
</g>
<!-- n4&#45;&gt;n5 -->
<g id="edge6" class="edge">
<title>n4&#45;&gt;n5</title>
<g id="a_edge6"><a xlink:title="support">
<path fill="none" stroke="#5c9e6f" stroke-width="2.5" d="M1610.85,-775.51C1584.58,-789.44 1552.62,-804.26 1522,-812.88 1354.94,-859.93 863.6,-892.27 611.71,-906.25"/>
<polygon fill="#5c9e6f" stroke="#5c9e6f" stroke-width="2.5" points="611.87,-902.38 601.09,-906.83 612.29,-910.07 611.87,-902.38"/>
</a>
</g>
</g>
<!-- n11 -->
<g id="node6" class="node">
<title>n11</title>
<g id="a_node6"><a xlink:title="The platform contract should describe observable behavior rather than mandate one storage product.">
<path fill="#c3ccd4" stroke="black" d="M2404.92,-775.08C2404.92,-775.08 2153.08,-775.08 2153.08,-775.08 2147.08,-775.08 2141.08,-769.08 2141.08,-763.08 2141.08,-763.08 2141.08,-717.16 2141.08,-717.16 2141.08,-711.16 2147.08,-705.16 2153.08,-705.16 2153.08,-705.16 2404.92,-705.16 2404.92,-705.16 2410.92,-705.16 2416.92,-711.16 2416.92,-717.16 2416.92,-717.16 2416.92,-763.08 2416.92,-763.08 2416.92,-769.08 2410.92,-775.08 2404.92,-775.08"/>
<text xml:space="preserve" text-anchor="start" x="2186.66" y="-759.32" font-family="arial" font-weight="bold" font-size="12.00" fill="#000000">Capability is not implementation</text>
<text xml:space="preserve" text-anchor="start" x="2186.98" y="-739.72" font-family="arial" font-size="11.00" fill="#000000">The platform contract should describe</text>
<text xml:space="preserve" text-anchor="start" x="2199.81" y="-726.52" font-family="arial" font-size="11.00" fill="#000000"> observable behavior rather than</text>
<text xml:space="preserve" text-anchor="start" x="2204.09" y="-713.32" font-family="arial" font-size="11.00" fill="#000000"> mandate one storage product.</text>
</a>
</g>
</g>
<!-- n11&#45;&gt;n1 -->
<g id="edge12" class="edge">
<title>n11&#45;&gt;n1</title>
<g id="a_edge12"><a xlink:title="support">
<path fill="none" stroke="#5c9e6f" stroke-width="2.5" d="M2210.07,-775.57C2184.03,-788.02 2153.93,-801.74 2126,-812.88 2076.96,-832.43 2022.5,-851.35 1973.33,-867.44"/>
<polygon fill="#5c9e6f" stroke="#5c9e6f" stroke-width="2.5" points="1972.14,-863.77 1962.87,-870.84 1974.52,-871.1 1972.14,-863.77"/>
</a>
</g>
</g>
<!-- n12 -->
<g id="node7" class="node">
<title>n12</title>
<g id="a_node7"><a xlink:title="AWS can use a managed RWX provider when it satisfies the shared&#45;directory gates better than Longhorn.">
<path fill="#c3ccd4" stroke="black" d="M2404.92,-529.36C2404.92,-529.36 2153.08,-529.36 2153.08,-529.36 2147.08,-529.36 2141.08,-523.36 2141.08,-517.36 2141.08,-517.36 2141.08,-458.24 2141.08,-458.24 2141.08,-452.24 2147.08,-446.24 2153.08,-446.24 2153.08,-446.24 2404.92,-446.24 2404.92,-446.24 2410.92,-446.24 2416.92,-452.24 2416.92,-458.24 2416.92,-458.24 2416.92,-517.36 2416.92,-517.36 2416.92,-523.36 2410.92,-529.36 2404.92,-529.36"/>
<text xml:space="preserve" text-anchor="start" x="2191.98" y="-513.6" font-family="arial" font-weight="bold" font-size="12.00" fill="#000000">AWS has managed candidates</text>
<text xml:space="preserve" text-anchor="start" x="2180.87" y="-494" font-family="arial" font-size="11.00" fill="#000000">AWS can use a managed RWX provider</text>
<text xml:space="preserve" text-anchor="start" x="2229.48" y="-480.8" font-family="arial" font-size="11.00" fill="#000000"> when it satisfies the</text>
<text xml:space="preserve" text-anchor="start" x="2194.93" y="-467.6" font-family="arial" font-size="11.00" fill="#000000"> shared&#45;directory gates better than</text>
<text xml:space="preserve" text-anchor="start" x="2252.7" y="-454.4" font-family="arial" font-size="11.00" fill="#000000"> Longhorn.</text>
</a>
</g>
</g>
<!-- n12&#45;&gt;n2 -->
<g id="edge13" class="edge">
<title>n12&#45;&gt;n2</title>
<g id="a_edge13"><a xlink:title="support">
<path fill="none" stroke="#5c9e6f" stroke-width="2.5" d="M2228.98,-529.85C2175.93,-573.39 2092.1,-642.19 2035.16,-688.92"/>
<polygon fill="#5c9e6f" stroke="#5c9e6f" stroke-width="2.5" points="2032.78,-685.9 2026.72,-695.85 2037.67,-691.85 2032.78,-685.9"/>
</a>
</g>
</g>
<!-- n13 -->
<g id="node8" class="node">
<title>n13</title>
<g id="a_node8"><a xlink:title="Providers without a suitable managed RWX service require an in&#45;cluster implementation.">
<path fill="#c3ccd4" stroke="black" d="M1794.92,-522.76C1794.92,-522.76 1543.08,-522.76 1543.08,-522.76 1537.08,-522.76 1531.08,-516.76 1531.08,-510.76 1531.08,-510.76 1531.08,-464.84 1531.08,-464.84 1531.08,-458.84 1537.08,-452.84 1543.08,-452.84 1543.08,-452.84 1794.92,-452.84 1794.92,-452.84 1800.92,-452.84 1806.92,-458.84 1806.92,-464.84 1806.92,-464.84 1806.92,-510.76 1806.92,-510.76 1806.92,-516.76 1800.92,-522.76 1794.92,-522.76"/>
<text xml:space="preserve" text-anchor="start" x="1586.33" y="-507" font-family="arial" font-weight="bold" font-size="12.00" fill="#000000">Hetzner still needs Longhorn</text>
<text xml:space="preserve" text-anchor="start" x="1577.28" y="-487.4" font-family="arial" font-size="11.00" fill="#000000">Providers without a suitable managed</text>
<text xml:space="preserve" text-anchor="start" x="1585.56" y="-474.2" font-family="arial" font-size="11.00" fill="#000000"> RWX service require an in&#45;cluster</text>
<text xml:space="preserve" text-anchor="start" x="1628.65" y="-461" font-family="arial" font-size="11.00" fill="#000000"> implementation.</text>
</a>
</g>
</g>
<!-- n13&#45;&gt;n4 -->
<g id="edge14" class="edge">
<title>n13&#45;&gt;n4</title>
<g id="a_edge14"><a xlink:title="support">
<path fill="none" stroke="#5c9e6f" stroke-width="2.5" d="M1669,-523.08C1669,-566.31 1669,-640.91 1669,-690.14"/>
<polygon fill="#5c9e6f" stroke="#5c9e6f" stroke-width="2.5" points="1665.15,-690.07 1669,-701.07 1672.85,-690.07 1665.15,-690.07"/>
</a>
</g>
</g>
<!-- n5&#45;&gt;n1 -->
<g id="edge4" class="edge">
<title>n5&#45;&gt;n1</title>
<g id="a_edge4"><a xlink:title="attack">
<path fill="none" stroke="#c26060" stroke-width="2.5" d="M597.33,-915.04C954.25,-915.04 1311.18,-915.04 1668.11,-915.04"/>
<polygon fill="#c26060" stroke="#c26060" stroke-width="2.5" points="1667.9,-918.89 1678.9,-915.04 1667.9,-911.19 1667.9,-918.89"/>
</a>
</g>
</g>
<!-- n6 -->
<g id="node10" class="node">
<title>n6</title>
<g id="a_node10"><a xlink:title="On operations that `/shared` actually serves, Longhorn and FSx are within benchmark noise at one writer. At four writers Longhorn is 1.2&#45;1.4x faster on extraction and checkout. Environment creation does not belong in this comparison because it uses the per&#45;user workspace volume.">
<path fill="white" stroke="#c3ccd4" stroke-width="2" d="M279.92,-812.88C279.92,-812.88 28.08,-812.88 28.08,-812.88 22.08,-812.88 16.08,-806.88 16.08,-800.88 16.08,-800.88 16.08,-679.36 16.08,-679.36 16.08,-673.36 22.08,-667.36 28.08,-667.36 28.08,-667.36 279.92,-667.36 279.92,-667.36 285.92,-667.36 291.92,-673.36 291.92,-679.36 291.92,-679.36 291.92,-800.88 291.92,-800.88 291.92,-806.88 285.92,-812.88 279.92,-812.88"/>
<text xml:space="preserve" text-anchor="start" x="75.67" y="-797.12" font-family="arial" font-weight="bold" font-size="12.00" fill="#000000">Longhorn performs well for</text>
<text xml:space="preserve" text-anchor="start" x="68.97" y="-785.12" font-family="arial" font-weight="bold" font-size="12.00" fill="#000000"> low&#45;concurrency shared data</text>
<text xml:space="preserve" text-anchor="start" x="65.04" y="-767.92" font-family="arial" font-size="11.00" fill="#000000">On operations that `/shared` actually</text>
<text xml:space="preserve" text-anchor="start" x="62.9" y="-754.72" font-family="arial" font-size="11.00" fill="#000000"> serves, Longhorn and FSx are within</text>
<text xml:space="preserve" text-anchor="start" x="70.54" y="-741.52" font-family="arial" font-size="11.00" fill="#000000"> benchmark noise at one writer. At</text>
<text xml:space="preserve" text-anchor="start" x="73.6" y="-728.32" font-family="arial" font-size="11.00" fill="#000000"> four writers Longhorn is 1.2&#45;1.4x</text>
<text xml:space="preserve" text-anchor="start" x="69.92" y="-715.12" font-family="arial" font-size="11.00" fill="#000000"> faster on extraction and checkout.</text>
<text xml:space="preserve" text-anchor="start" x="59.83" y="-701.92" font-family="arial" font-size="11.00" fill="#000000"> Environment creation does not belong</text>
<text xml:space="preserve" text-anchor="start" x="68.4" y="-688.72" font-family="arial" font-size="11.00" fill="#000000"> in this comparison because it uses</text>
<text xml:space="preserve" text-anchor="start" x="74.22" y="-675.52" font-family="arial" font-size="11.00" fill="#000000"> the per&#45;user workspace volume.</text>
</a>
</g>
</g>
<!-- n6&#45;&gt;n5 -->
<g id="edge7" class="edge">
<title>n6&#45;&gt;n5</title>
<g id="a_edge7"><a xlink:title="support">
<path fill="none" stroke="#5c9e6f" stroke-width="2.5" d="M281.14,-813.2C321.25,-835.94 363.78,-860.05 397.18,-878.99"/>
<polygon fill="#5c9e6f" stroke="#5c9e6f" stroke-width="2.5" points="395.22,-882.31 406.69,-884.38 399.02,-875.61 395.22,-882.31"/>
</a>
</g>
</g>
<!-- n14 -->
<g id="node11" class="node">
<title>n14</title>
<g id="a_node11"><a xlink:title="One Longhorn implementation across providers reduces differences in support and recovery procedures.">
<path fill="#c3ccd4" stroke="black" d="M584.92,-775.08C584.92,-775.08 333.08,-775.08 333.08,-775.08 327.08,-775.08 321.08,-769.08 321.08,-763.08 321.08,-763.08 321.08,-717.16 321.08,-717.16 321.08,-711.16 327.08,-705.16 333.08,-705.16 333.08,-705.16 584.92,-705.16 584.92,-705.16 590.92,-705.16 596.92,-711.16 596.92,-717.16 596.92,-717.16 596.92,-763.08 596.92,-763.08 596.92,-769.08 590.92,-775.08 584.92,-775.08"/>
<text xml:space="preserve" text-anchor="start" x="385.32" y="-759.32" font-family="arial" font-weight="bold" font-size="12.00" fill="#000000">Use Longhorn universally</text>
<text xml:space="preserve" text-anchor="start" x="367.28" y="-739.72" font-family="arial" font-size="11.00" fill="#000000">One Longhorn implementation across</text>
<text xml:space="preserve" text-anchor="start" x="379.52" y="-726.52" font-family="arial" font-size="11.00" fill="#000000"> providers reduces differences in</text>
<text xml:space="preserve" text-anchor="start" x="375.23" y="-713.32" font-family="arial" font-size="11.00" fill="#000000"> support and recovery procedures.</text>
</a>
</g>
</g>
<!-- n14&#45;&gt;n5 -->
<g id="edge15" class="edge">
<title>n14&#45;&gt;n5</title>
<g id="a_edge15"><a xlink:title="support">
<path fill="none" stroke="#5c9e6f" stroke-width="2.5" d="M459,-775.28C459,-802.94 459,-842.04 459,-871.69"/>
<polygon fill="#5c9e6f" stroke="#5c9e6f" stroke-width="2.5" points="455.15,-871.43 459,-882.43 462.85,-871.43 455.15,-871.43"/>
</a>
</g>
</g>
<!-- n7 -->
<g id="node12" class="node">
<title>n7</title>
<g id="a_node12"><a xlink:title="Replication is distributed, but access to the shared volume is not.">
<path fill="white" stroke="#c3ccd4" stroke-width="2" d="M889.92,-773.28C889.92,-773.28 638.08,-773.28 638.08,-773.28 632.08,-773.28 626.08,-767.28 626.08,-761.28 626.08,-761.28 626.08,-718.96 626.08,-718.96 626.08,-712.96 632.08,-706.96 638.08,-706.96 638.08,-706.96 889.92,-706.96 889.92,-706.96 895.92,-706.96 901.92,-712.96 901.92,-718.96 901.92,-718.96 901.92,-761.28 901.92,-761.28 901.92,-767.28 895.92,-773.28 889.92,-773.28"/>
<text xml:space="preserve" text-anchor="start" x="663.99" y="-757.52" font-family="arial" font-weight="bold" font-size="12.00" fill="#000000">Longhorn RWX has a concentrated</text>
<text xml:space="preserve" text-anchor="start" x="735.66" y="-745.52" font-family="arial" font-weight="bold" font-size="12.00" fill="#000000"> data path</text>
<text xml:space="preserve" text-anchor="start" x="693.68" y="-728.32" font-family="arial" font-size="11.00" fill="#000000">Replication is distributed, but</text>
<text xml:space="preserve" text-anchor="start" x="676.26" y="-715.12" font-family="arial" font-size="11.00" fill="#000000"> access to the shared volume is not.</text>
</a>
</g>
</g>
<!-- n7&#45;&gt;n5 -->
<g id="edge8" class="edge">
<title>n7&#45;&gt;n5</title>
<g id="a_edge8"><a xlink:title="attack">
<path fill="none" stroke="#c26060" stroke-width="2.5" d="M706.63,-773.64C653.59,-803.71 574.99,-848.28 520.64,-879.1"/>
<polygon fill="#c26060" stroke="#c26060" stroke-width="2.5" points="519.02,-875.59 511.35,-884.36 522.82,-882.29 519.02,-875.59"/>
</a>
</g>
</g>
<!-- n8 -->
<g id="node13" class="node">
<title>n8</title>
<g id="a_node13"><a xlink:title="EFS has the flattest curve, while its crossover with Longhorn and FSx lies beyond the measured range. ">
<path fill="white" stroke="#b3762f" stroke-width="2" d="M1494.92,-296.84C1494.92,-296.84 1243.08,-296.84 1243.08,-296.84 1237.08,-296.84 1231.08,-290.84 1231.08,-284.84 1231.08,-284.84 1231.08,-238.92 1231.08,-238.92 1231.08,-232.92 1237.08,-226.92 1243.08,-226.92 1243.08,-226.92 1494.92,-226.92 1494.92,-226.92 1500.92,-226.92 1506.92,-232.92 1506.92,-238.92 1506.92,-238.92 1506.92,-284.84 1506.92,-284.84 1506.92,-290.84 1500.92,-296.84 1494.92,-296.84"/>
<text xml:space="preserve" text-anchor="start" x="1260.96" y="-281.08" font-family="arial" font-weight="bold" font-size="12.00" fill="#000000">Concurrency crossover remains open</text>
<text xml:space="preserve" text-anchor="start" x="1283.41" y="-261.48" font-family="arial" font-size="11.00" fill="#000000">EFS has the flattest curve, while its</text>
<text xml:space="preserve" text-anchor="start" x="1275.76" y="-248.28" font-family="arial" font-size="11.00" fill="#000000"> crossover with Longhorn and FSx lies</text>
<text xml:space="preserve" text-anchor="start" x="1295.62" y="-235.08" font-family="arial" font-size="11.00" fill="#000000"> beyond the measured range. </text>
</a>
</g>
</g>
<!-- n8&#45;&gt;n2 -->
<g id="edge9" class="edge">
<title>n8&#45;&gt;n2</title>
<g id="a_edge9"><a xlink:title="support">
<path fill="none" stroke="#5c9e6f" stroke-width="2.5" d="M1372.55,-297.15C1381.92,-368.59 1414.13,-533.41 1517,-613.36 1624.89,-697.22 1691.09,-616.98 1821,-659.36 1845.75,-667.44 1871.34,-679.22 1894.33,-691.27"/>
<polygon fill="#5c9e6f" stroke="#5c9e6f" stroke-width="2.5" points="1892.34,-694.57 1903.85,-696.38 1895.98,-687.78 1892.34,-694.57"/>
</a>
</g>
</g>
<!-- n9 -->
<g id="node14" class="node">
<title>n9</title>
<g id="a_node14"><a xlink:title="Nebari Classic exhausted shared NFS at conference tutorial scale, and managed EFS became unresponsive on a separate occasion even after its performance tier was raised. A managed service can therefore still become a system&#45;wide bottleneck beyond the measured range. ">
<path fill="white" stroke="#b3762f" stroke-width="2" d="M1494.92,-161.52C1494.92,-161.52 1243.08,-161.52 1243.08,-161.52 1237.08,-161.52 1231.08,-155.52 1231.08,-149.52 1231.08,-149.52 1231.08,-28 1231.08,-28 1231.08,-22 1237.08,-16 1243.08,-16 1243.08,-16 1494.92,-16 1494.92,-16 1500.92,-16 1506.92,-22 1506.92,-28 1506.92,-28 1506.92,-149.52 1506.92,-149.52 1506.92,-155.52 1500.92,-161.52 1494.92,-161.52"/>
<text xml:space="preserve" text-anchor="start" x="1278.31" y="-145.76" font-family="arial" font-weight="bold" font-size="12.00" fill="#000000">Historical NFS saturation warns</text>
<text xml:space="preserve" text-anchor="start" x="1306.99" y="-133.76" font-family="arial" font-weight="bold" font-size="12.00" fill="#000000"> against extrapolation</text>
<text xml:space="preserve" text-anchor="start" x="1275.76" y="-116.56" font-family="arial" font-size="11.00" fill="#000000">Nebari Classic exhausted shared NFS</text>
<text xml:space="preserve" text-anchor="start" x="1289.51" y="-103.36" font-family="arial" font-size="11.00" fill="#000000"> at conference tutorial scale, and</text>
<text xml:space="preserve" text-anchor="start" x="1264.74" y="-90.16" font-family="arial" font-size="11.00" fill="#000000"> managed EFS became unresponsive on a</text>
<text xml:space="preserve" text-anchor="start" x="1289.82" y="-76.96" font-family="arial" font-size="11.00" fill="#000000"> separate occasion even after its</text>
<text xml:space="preserve" text-anchor="start" x="1292.89" y="-63.76" font-family="arial" font-size="11.00" fill="#000000"> performance tier was raised. A</text>
<text xml:space="preserve" text-anchor="start" x="1282.18" y="-50.56" font-family="arial" font-size="11.00" fill="#000000"> managed service can therefore still</text>
<text xml:space="preserve" text-anchor="start" x="1284.63" y="-37.36" font-family="arial" font-size="11.00" fill="#000000"> become a system&#45;wide bottleneck</text>
<text xml:space="preserve" text-anchor="start" x="1295.62" y="-24.16" font-family="arial" font-size="11.00" fill="#000000"> beyond the measured range. </text>
</a>
</g>
</g>
<!-- n9&#45;&gt;n8 -->
<g id="edge10" class="edge">
<title>n9&#45;&gt;n8</title>
<g id="a_edge10"><a xlink:title="support">
<path fill="none" stroke="#5c9e6f" stroke-width="2.5" d="M1369,-161.83C1369,-178.86 1369,-196.62 1369,-212.32"/>
<polygon fill="#5c9e6f" stroke="#5c9e6f" stroke-width="2.5" points="1365.15,-211.87 1369,-222.87 1372.85,-211.87 1365.15,-211.87"/>
</a>
</g>
</g>
<!-- n10 -->
<g id="node15" class="node">
<title>n10</title>
<g id="a_node15"><a xlink:title="Staging may reduce performance pressure on shared storage but does not remove the durable shared&#45;storage contract. ">
<path fill="white" stroke="#b3762f" stroke-width="2" d="M886.92,-308.24C886.92,-308.24 635.08,-308.24 635.08,-308.24 629.08,-308.24 623.08,-302.24 623.08,-296.24 623.08,-296.24 623.08,-227.52 623.08,-227.52 623.08,-221.52 629.08,-215.52 635.08,-215.52 635.08,-215.52 886.92,-215.52 886.92,-215.52 892.92,-215.52 898.92,-221.52 898.92,-227.52 898.92,-227.52 898.92,-296.24 898.92,-296.24 898.92,-302.24 892.92,-308.24 886.92,-308.24"/>
<text xml:space="preserve" text-anchor="start" x="675.97" y="-292.48" font-family="arial" font-weight="bold" font-size="12.00" fill="#000000">Local execution is a workload</text>
<text xml:space="preserve" text-anchor="start" x="725" y="-280.48" font-family="arial" font-weight="bold" font-size="12.00" fill="#000000"> workaround</text>
<text xml:space="preserve" text-anchor="start" x="679.68" y="-263.28" font-family="arial" font-size="11.00" fill="#000000">Staging may reduce performance</text>
<text xml:space="preserve" text-anchor="start" x="669.58" y="-250.08" font-family="arial" font-size="11.00" fill="#000000"> pressure on shared storage but does</text>
<text xml:space="preserve" text-anchor="start" x="702.91" y="-236.88" font-family="arial" font-size="11.00" fill="#000000"> not remove the durable</text>
<text xml:space="preserve" text-anchor="start" x="698.33" y="-223.68" font-family="arial" font-size="11.00" fill="#000000"> shared&#45;storage contract. </text>
</a>
</g>
</g>
<!-- n15 -->
<g id="node16" class="node">
<title>n15</title>
<g id="a_node16"><a xlink:title="Longhorn RWX places one NFS server pod in front of each replicated block volume.">
<path fill="#c3ccd4" stroke="black" d="M888.92,-522.76C888.92,-522.76 637.08,-522.76 637.08,-522.76 631.08,-522.76 625.08,-516.76 625.08,-510.76 625.08,-510.76 625.08,-464.84 625.08,-464.84 625.08,-458.84 631.08,-452.84 637.08,-452.84 637.08,-452.84 888.92,-452.84 888.92,-452.84 894.92,-452.84 900.92,-458.84 900.92,-464.84 900.92,-464.84 900.92,-510.76 900.92,-510.76 900.92,-516.76 894.92,-522.76 888.92,-522.76"/>
<text xml:space="preserve" text-anchor="start" x="655.33" y="-507" font-family="arial" font-weight="bold" font-size="12.00" fill="#000000">Longhorn concentrates the RWX path</text>
<text xml:space="preserve" text-anchor="start" x="667.93" y="-487.4" font-family="arial" font-size="11.00" fill="#000000">Longhorn RWX places one NFS server</text>
<text xml:space="preserve" text-anchor="start" x="689.01" y="-474.2" font-family="arial" font-size="11.00" fill="#000000"> pod in front of each replicated</text>
<text xml:space="preserve" text-anchor="start" x="727.85" y="-461" font-family="arial" font-size="11.00" fill="#000000"> block volume.</text>
</a>
</g>
</g>
<!-- n10&#45;&gt;n15 -->
<g id="edge11" class="edge">
<title>n10&#45;&gt;n15</title>
<g id="a_edge11"><a xlink:title="undercut">
<path fill="none" stroke="#8a6bb0" stroke-width="2.5" d="M761.41,-308.73C761.74,-346.27 762.22,-399.24 762.56,-437.64"/>
<polygon fill="#8a6bb0" stroke="#8a6bb0" stroke-width="2.5" points="758.71,-437.6 762.66,-448.56 766.41,-437.53 758.71,-437.6"/>
</a>
</g>
</g>
<!-- n15&#45;&gt;n7 -->
<g id="edge16" class="edge">
<title>n15&#45;&gt;n7</title>
<g id="a_edge16"><a xlink:title="support">
<path fill="none" stroke="#5c9e6f" stroke-width="2.5" d="M763.14,-523.08C763.31,-566.91 763.62,-643.01 763.81,-692.2"/>
<polygon fill="#5c9e6f" stroke="#5c9e6f" stroke-width="2.5" points="759.96,-692.07 763.86,-703.05 767.66,-692.04 759.96,-692.07"/>
</a>
</g>
</g>
<!-- n16 -->
<g id="node17" class="node">
<title>n16</title>
<g id="a_node17"><a xlink:title="Fixed&#45;capacity paths slow as writers are added.">
<path fill="#c3ccd4" stroke="black" d="M1189.92,-121.92C1189.92,-121.92 938.08,-121.92 938.08,-121.92 932.08,-121.92 926.08,-115.92 926.08,-109.92 926.08,-109.92 926.08,-67.6 926.08,-67.6 926.08,-61.6 932.08,-55.6 938.08,-55.6 938.08,-55.6 1189.92,-55.6 1189.92,-55.6 1195.92,-55.6 1201.92,-61.6 1201.92,-67.6 1201.92,-67.6 1201.92,-109.92 1201.92,-109.92 1201.92,-115.92 1195.92,-121.92 1189.92,-121.92"/>
<text xml:space="preserve" text-anchor="start" x="970.31" y="-106.16" font-family="arial" font-weight="bold" font-size="12.00" fill="#000000">The concentration is measurable</text>
<text xml:space="preserve" text-anchor="start" x="1031.67" y="-94.16" font-family="arial" font-weight="bold" font-size="12.00" fill="#000000"> under load</text>
<text xml:space="preserve" text-anchor="start" x="975.97" y="-76.96" font-family="arial" font-size="11.00" fill="#000000">Fixed&#45;capacity paths slow as writers</text>
<text xml:space="preserve" text-anchor="start" x="1036.17" y="-63.76" font-family="arial" font-size="11.00" fill="#000000"> are added.</text>
</a>
</g>
</g>
<!-- n16&#45;&gt;n8 -->
<g id="edge17" class="edge">
<title>n16&#45;&gt;n8</title>
<g id="a_edge17"><a xlink:title="support">
<path fill="none" stroke="#5c9e6f" stroke-width="2.5" d="M1122.09,-122.35C1171.19,-149.9 1241.81,-189.52 1294.96,-219.34"/>
<polygon fill="#5c9e6f" stroke="#5c9e6f" stroke-width="2.5" points="1292.95,-222.63 1304.43,-224.65 1296.72,-215.91 1292.95,-222.63"/>
</a>
</g>
</g>
<!-- n17 -->
<g id="node18" class="node">
<title>n17</title>
<g id="a_node18"><a xlink:title="Data&#45;intensive jobs can copy inputs to node&#45;local storage, execute there, and save results back to durable storage.">
<path fill="#c3ccd4" stroke="black" d="M884.92,-135.12C884.92,-135.12 633.08,-135.12 633.08,-135.12 627.08,-135.12 621.08,-129.12 621.08,-123.12 621.08,-123.12 621.08,-54.4 621.08,-54.4 621.08,-48.4 627.08,-42.4 633.08,-42.4 633.08,-42.4 884.92,-42.4 884.92,-42.4 890.92,-42.4 896.92,-48.4 896.92,-54.4 896.92,-54.4 896.92,-123.12 896.92,-123.12 896.92,-129.12 890.92,-135.12 884.92,-135.12"/>
<text xml:space="preserve" text-anchor="start" x="675.98" y="-119.36" font-family="arial" font-weight="bold" font-size="12.00" fill="#000000">Local staging can narrow the</text>
<text xml:space="preserve" text-anchor="start" x="691.64" y="-107.36" font-family="arial" font-weight="bold" font-size="12.00" fill="#000000"> filesystem requirement</text>
<text xml:space="preserve" text-anchor="start" x="672.48" y="-90.16" font-family="arial" font-size="11.00" fill="#000000">Data&#45;intensive jobs can copy inputs</text>
<text xml:space="preserve" text-anchor="start" x="683.79" y="-76.96" font-family="arial" font-size="11.00" fill="#000000"> to node&#45;local storage, execute</text>
<text xml:space="preserve" text-anchor="start" x="682.57" y="-63.76" font-family="arial" font-size="11.00" fill="#000000"> there, and save results back to</text>
<text xml:space="preserve" text-anchor="start" x="717.72" y="-50.56" font-family="arial" font-size="11.00" fill="#000000"> durable storage.</text>
</a>
</g>
</g>
<!-- n17&#45;&gt;n10 -->
<g id="edge18" class="edge">
<title>n17&#45;&gt;n10</title>
<g id="a_edge18"><a xlink:title="support">
<path fill="none" stroke="#5c9e6f" stroke-width="2.5" d="M759.54,-135.62C759.77,-155.55 760.05,-179.18 760.29,-200.51"/>
<polygon fill="#5c9e6f" stroke="#5c9e6f" stroke-width="2.5" points="756.44,-200.46 760.42,-211.41 764.14,-200.37 756.44,-200.46"/>
</a>
</g>
</g>
</g>
</svg>
